<?xml version="1.0" encoding="utf-8" standalone="no"?>
<!DOCTYPE svg PUBLIC "-//W3C//DTD SVG 1.1//EN"
  "http://www.w3.org/Graphics/SVG/1.1/DTD/svg11.dtd">
<!-- Created with matplotlib (http://matplotlib.org/) -->
<svg height="345.6pt" version="1.1" viewBox="0 0 460.8 345.6" width="460.8pt" xmlns="http://www.w3.org/2000/svg" xmlns:xlink="http://www.w3.org/1999/xlink">
 <defs>
  <style type="text/css">
*{stroke-linecap:butt;stroke-linejoin:round;}
  </style>
 </defs>
 <g id="figure_1">
  <g id="patch_1">
   <path d="M 0 345.6 
L 460.8 345.6 
L 460.8 0 
L 0 0 
z
" style="fill:#ffffff;"/>
  </g>
  <g id="axes_1">
   <g id="matplotlib.axis_1">
    <g id="xtick_1">
     <g id="text_1">
      <!-- 0° -->
      <defs>
       <path d="M 31.78125 66.40625 
Q 24.171875 66.40625 20.328125 58.90625 
Q 16.5 51.421875 16.5 36.375 
Q 16.5 21.390625 20.328125 13.890625 
Q 24.171875 6.390625 31.78125 6.390625 
Q 39.453125 6.390625 43.28125 13.890625 
Q 47.125 21.390625 47.125 36.375 
Q 47.125 51.421875 43.28125 58.90625 
Q 39.453125 66.40625 31.78125 66.40625 
z
M 31.78125 74.21875 
Q 44.046875 74.21875 50.515625 64.515625 
Q 56.984375 54.828125 56.984375 36.375 
Q 56.984375 17.96875 50.515625 8.265625 
Q 44.046875 -1.421875 31.78125 -1.421875 
Q 19.53125 -1.421875 13.0625 8.265625 
Q 6.59375 17.96875 6.59375 36.375 
Q 6.59375 54.828125 13.0625 64.515625 
Q 19.53125 74.21875 31.78125 74.21875 
z
" id="DejaVuSans-30"/>
       <path d="M 25 67.921875 
Q 21.09375 67.921875 18.40625 65.203125 
Q 15.71875 62.5 15.71875 58.59375 
Q 15.71875 54.734375 18.40625 52.078125 
Q 21.09375 49.421875 25 49.421875 
Q 28.90625 49.421875 31.59375 52.078125 
Q 34.28125 54.734375 34.28125 58.59375 
Q 34.28125 62.453125 31.5625 65.1875 
Q 28.859375 67.921875 25 67.921875 
z
M 25 74.21875 
Q 28.125 74.21875 31 73.015625 
Q 33.890625 71.828125 35.984375 69.578125 
Q 38.234375 67.390625 39.359375 64.59375 
Q 40.484375 61.8125 40.484375 58.59375 
Q 40.484375 52.15625 35.96875 47.6875 
Q 31.453125 43.21875 24.90625 43.21875 
Q 18.3125 43.21875 13.90625 47.609375 
Q 9.515625 52 9.515625 58.59375 
Q 9.515625 65.140625 14 69.671875 
Q 18.5 74.21875 25 74.21875 
z
" id="DejaVuSans-b0"/>
      </defs>
      <g transform="translate(230.47875 30.231375)scale(0.1 -0.1)">
       <use xlink:href="#DejaVuSans-30"/>
       <use x="63.623047" xlink:href="#DejaVuSans-b0"/>
      </g>
     </g>
    </g>
    <g id="xtick_2">
     <g id="text_2">
      <!-- 45° -->
      <defs>
       <path d="M 37.796875 64.3125 
L 12.890625 25.390625 
L 37.796875 25.390625 
z
M 35.203125 72.90625 
L 47.609375 72.90625 
L 47.609375 25.390625 
L 58.015625 25.390625 
L 58.015625 17.1875 
L 47.609375 17.1875 
L 47.609375 0 
L 37.796875 0 
L 37.796875 17.1875 
L 4.890625 17.1875 
L 4.890625 26.703125 
z
" id="DejaVuSans-34"/>
       <path d="M 10.796875 72.90625 
L 49.515625 72.90625 
L 49.515625 64.59375 
L 19.828125 64.59375 
L 19.828125 46.734375 
Q 21.96875 47.46875 24.109375 47.828125 
Q 26.265625 48.1875 28.421875 48.1875 
Q 40.625 48.1875 47.75 41.5 
Q 54.890625 34.8125 54.890625 23.390625 
Q 54.890625 11.625 47.5625 5.09375 
Q 40.234375 -1.421875 26.90625 -1.421875 
Q 22.3125 -1.421875 17.546875 -0.640625 
Q 12.796875 0.140625 7.71875 1.703125 
L 7.71875 11.625 
Q 12.109375 9.234375 16.796875 8.0625 
Q 21.484375 6.890625 26.703125 6.890625 
Q 35.15625 6.890625 40.078125 11.328125 
Q 45.015625 15.765625 45.015625 23.390625 
Q 45.015625 31 40.078125 35.4375 
Q 35.15625 39.890625 26.703125 39.890625 
Q 22.75 39.890625 18.8125 39.015625 
Q 14.890625 38.140625 10.796875 36.28125 
z
" id="DejaVuSans-35"/>
      </defs>
      <g transform="translate(331.281795 73.30308)scale(0.1 -0.1)">
       <use xlink:href="#DejaVuSans-34"/>
       <use x="63.623047" xlink:href="#DejaVuSans-35"/>
       <use x="127.246094" xlink:href="#DejaVuSans-b0"/>
      </g>
     </g>
    </g>
    <g id="xtick_3">
     <g id="text_3">
      <!-- 90° -->
      <defs>
       <path d="M 10.984375 1.515625 
L 10.984375 10.5 
Q 14.703125 8.734375 18.5 7.8125 
Q 22.3125 6.890625 25.984375 6.890625 
Q 35.75 6.890625 40.890625 13.453125 
Q 46.046875 20.015625 46.78125 33.40625 
Q 43.953125 29.203125 39.59375 26.953125 
Q 35.25 24.703125 29.984375 24.703125 
Q 19.046875 24.703125 12.671875 31.3125 
Q 6.296875 37.9375 6.296875 49.421875 
Q 6.296875 60.640625 12.9375 67.421875 
Q 19.578125 74.21875 30.609375 74.21875 
Q 43.265625 74.21875 49.921875 64.515625 
Q 56.59375 54.828125 56.59375 36.375 
Q 56.59375 19.140625 48.40625 8.859375 
Q 40.234375 -1.421875 26.421875 -1.421875 
Q 22.703125 -1.421875 18.890625 -0.6875 
Q 15.09375 0.046875 10.984375 1.515625 
z
M 30.609375 32.421875 
Q 37.25 32.421875 41.125 36.953125 
Q 45.015625 41.5 45.015625 49.421875 
Q 45.015625 57.28125 41.125 61.84375 
Q 37.25 66.40625 30.609375 66.40625 
Q 23.96875 66.40625 20.09375 61.84375 
Q 16.21875 57.28125 16.21875 49.421875 
Q 16.21875 41.5 20.09375 36.953125 
Q 23.96875 32.421875 30.609375 32.421875 
z
" id="DejaVuSans-39"/>
      </defs>
      <g transform="translate(374.3535 177.287375)scale(0.1 -0.1)">
       <use xlink:href="#DejaVuSans-39"/>
       <use x="63.623047" xlink:href="#DejaVuSans-30"/>
       <use x="127.246094" xlink:href="#DejaVuSans-b0"/>
      </g>
     </g>
    </g>
    <g id="xtick_4">
     <g id="text_4">
      <!-- 135° -->
      <defs>
       <path d="M 12.40625 8.296875 
L 28.515625 8.296875 
L 28.515625 63.921875 
L 10.984375 60.40625 
L 10.984375 69.390625 
L 28.421875 72.90625 
L 38.28125 72.90625 
L 38.28125 8.296875 
L 54.390625 8.296875 
L 54.390625 0 
L 12.40625 0 
z
" id="DejaVuSans-31"/>
       <path d="M 40.578125 39.3125 
Q 47.65625 37.796875 51.625 33 
Q 55.609375 28.21875 55.609375 21.1875 
Q 55.609375 10.40625 48.1875 4.484375 
Q 40.765625 -1.421875 27.09375 -1.421875 
Q 22.515625 -1.421875 17.65625 -0.515625 
Q 12.796875 0.390625 7.625 2.203125 
L 7.625 11.71875 
Q 11.71875 9.328125 16.59375 8.109375 
Q 21.484375 6.890625 26.8125 6.890625 
Q 36.078125 6.890625 40.9375 10.546875 
Q 45.796875 14.203125 45.796875 21.1875 
Q 45.796875 27.640625 41.28125 31.265625 
Q 36.765625 34.90625 28.71875 34.90625 
L 20.21875 34.90625 
L 20.21875 43.015625 
L 29.109375 43.015625 
Q 36.375 43.015625 40.234375 45.921875 
Q 44.09375 48.828125 44.09375 54.296875 
Q 44.09375 59.90625 40.109375 62.90625 
Q 36.140625 65.921875 28.71875 65.921875 
Q 24.65625 65.921875 20.015625 65.03125 
Q 15.375 64.15625 9.8125 62.3125 
L 9.8125 71.09375 
Q 15.4375 72.65625 20.34375 73.4375 
Q 25.25 74.21875 29.59375 74.21875 
Q 40.828125 74.21875 47.359375 69.109375 
Q 53.90625 64.015625 53.90625 55.328125 
Q 53.90625 49.265625 50.4375 45.09375 
Q 46.96875 40.921875 40.578125 39.3125 
z
" id="DejaVuSans-33"/>
      </defs>
      <g transform="translate(328.100545 281.27167)scale(0.1 -0.1)">
       <use xlink:href="#DejaVuSans-31"/>
       <use x="63.623047" xlink:href="#DejaVuSans-33"/>
       <use x="127.246094" xlink:href="#DejaVuSans-35"/>
       <use x="190.869141" xlink:href="#DejaVuSans-b0"/>
      </g>
     </g>
    </g>
    <g id="xtick_5">
     <g id="text_5">
      <!-- 180° -->
      <defs>
       <path d="M 31.78125 34.625 
Q 24.75 34.625 20.71875 30.859375 
Q 16.703125 27.09375 16.703125 20.515625 
Q 16.703125 13.921875 20.71875 10.15625 
Q 24.75 6.390625 31.78125 6.390625 
Q 38.8125 6.390625 42.859375 10.171875 
Q 46.921875 13.96875 46.921875 20.515625 
Q 46.921875 27.09375 42.890625 30.859375 
Q 38.875 34.625 31.78125 34.625 
z
M 21.921875 38.8125 
Q 15.578125 40.375 12.03125 44.71875 
Q 8.5 49.078125 8.5 55.328125 
Q 8.5 64.0625 14.71875 69.140625 
Q 20.953125 74.21875 31.78125 74.21875 
Q 42.671875 74.21875 48.875 69.140625 
Q 55.078125 64.0625 55.078125 55.328125 
Q 55.078125 49.078125 51.53125 44.71875 
Q 48 40.375 41.703125 38.8125 
Q 48.828125 37.15625 52.796875 32.3125 
Q 56.78125 27.484375 56.78125 20.515625 
Q 56.78125 9.90625 50.3125 4.234375 
Q 43.84375 -1.421875 31.78125 -1.421875 
Q 19.734375 -1.421875 13.25 4.234375 
Q 6.78125 9.90625 6.78125 20.515625 
Q 6.78125 27.484375 10.78125 32.3125 
Q 14.796875 37.15625 21.921875 38.8125 
z
M 18.3125 54.390625 
Q 18.3125 48.734375 21.84375 45.5625 
Q 25.390625 42.390625 31.78125 42.390625 
Q 38.140625 42.390625 41.71875 45.5625 
Q 45.3125 48.734375 45.3125 54.390625 
Q 45.3125 60.0625 41.71875 63.234375 
Q 38.140625 66.40625 31.78125 66.40625 
Q 25.390625 66.40625 21.84375 63.234375 
Q 18.3125 60.0625 18.3125 54.390625 
z
" id="DejaVuSans-38"/>
      </defs>
      <g transform="translate(224.11625 324.343375)scale(0.1 -0.1)">
       <use xlink:href="#DejaVuSans-31"/>
       <use x="63.623047" xlink:href="#DejaVuSans-38"/>
       <use x="127.246094" xlink:href="#DejaVuSans-30"/>
       <use x="190.869141" xlink:href="#DejaVuSans-b0"/>
      </g>
     </g>
    </g>
    <g id="xtick_6">
     <g id="text_6">
      <!-- 225° -->
      <defs>
       <path d="M 19.1875 8.296875 
L 53.609375 8.296875 
L 53.609375 0 
L 7.328125 0 
L 7.328125 8.296875 
Q 12.9375 14.109375 22.625 23.890625 
Q 32.328125 33.6875 34.8125 36.53125 
Q 39.546875 41.84375 41.421875 45.53125 
Q 43.3125 49.21875 43.3125 52.78125 
Q 43.3125 58.59375 39.234375 62.25 
Q 35.15625 65.921875 28.609375 65.921875 
Q 23.96875 65.921875 18.8125 64.3125 
Q 13.671875 62.703125 7.8125 59.421875 
L 7.8125 69.390625 
Q 13.765625 71.78125 18.9375 73 
Q 24.125 74.21875 28.421875 74.21875 
Q 39.75 74.21875 46.484375 68.546875 
Q 53.21875 62.890625 53.21875 53.421875 
Q 53.21875 48.921875 51.53125 44.890625 
Q 49.859375 40.875 45.40625 35.40625 
Q 44.1875 33.984375 37.640625 27.21875 
Q 31.109375 20.453125 19.1875 8.296875 
z
" id="DejaVuSans-32"/>
      </defs>
      <g transform="translate(120.131955 281.27167)scale(0.1 -0.1)">
       <use xlink:href="#DejaVuSans-32"/>
       <use x="63.623047" xlink:href="#DejaVuSans-32"/>
       <use x="127.246094" xlink:href="#DejaVuSans-35"/>
       <use x="190.869141" xlink:href="#DejaVuSans-b0"/>
      </g>
     </g>
    </g>
    <g id="xtick_7">
     <g id="text_7">
      <!-- 270° -->
      <defs>
       <path d="M 8.203125 72.90625 
L 55.078125 72.90625 
L 55.078125 68.703125 
L 28.609375 0 
L 18.3125 0 
L 43.21875 64.59375 
L 8.203125 64.59375 
z
" id="DejaVuSans-37"/>
      </defs>
      <g transform="translate(77.06025 177.287375)scale(0.1 -0.1)">
       <use xlink:href="#DejaVuSans-32"/>
       <use x="63.623047" xlink:href="#DejaVuSans-37"/>
       <use x="127.246094" xlink:href="#DejaVuSans-30"/>
       <use x="190.869141" xlink:href="#DejaVuSans-b0"/>
      </g>
     </g>
    </g>
    <g id="xtick_8">
     <g id="text_8">
      <!-- 315° -->
      <g transform="translate(120.131955 73.30308)scale(0.1 -0.1)">
       <use xlink:href="#DejaVuSans-33"/>
       <use x="63.623047" xlink:href="#DejaVuSans-31"/>
       <use x="127.246094" xlink:href="#DejaVuSans-35"/>
       <use x="190.869141" xlink:href="#DejaVuSans-b0"/>
      </g>
     </g>
    </g>
   </g>
   <g id="matplotlib.axis_2"/>
  </g>
  <g id="axes_2">
   <g id="patch_2">
    <path d="M 236.16 307.584 
C 271.446864 307.584 305.293219 293.56438 330.2448 268.6128 
C 355.19638 243.661219 369.216 209.814864 369.216 174.528 
C 369.216 139.241136 355.19638 105.394781 330.2448 80.4432 
C 305.293219 55.49162 271.446864 41.472 236.16 41.472 
C 200.873136 41.472 167.026781 55.49162 142.0752 80.4432 
C 117.12362 105.394781 103.104 139.241136 103.104 174.528 
C 103.104 209.814864 117.12362 243.661219 142.0752 268.6128 
C 167.026781 293.56438 200.873136 307.584 236.16 307.584 
z
" style="fill:#ffffff;"/>
   </g>
   <g id="matplotlib.axis_3">
    <g id="xtick_9">
     <g id="line2d_1">
      <path clip-path="url(#p9ff11cc846)" d="M 213.055068 305.56258 
L 200.975448 302.847704 
L 189.200471 299.021782 
L 177.832089 294.117941 
L 166.968734 288.178639 
L 156.704466 281.255304 
L 147.128158 273.407878 
L 138.322725 264.704309 
L 130.364407 255.219956 
L 123.322113 245.036938 
L 117.256815 234.243424 
L 112.221032 222.932869 
L 108.258364 211.203204 
L 105.403122 199.15599 
L 103.680027 186.895537 
L 103.104 174.528 
L 103.680027 162.160463 
L 105.403122 149.90001 
L 108.258364 137.852796 
L 112.221032 126.123131 
L 117.256815 114.812576 
L 123.322113 104.019062 
L 130.364407 93.836044 
L 138.322725 84.351691 
L 147.128158 75.648122 
L 156.704466 67.800696 
L 166.968734 60.877361 
L 177.832089 54.938059 
L 189.200471 50.034218 
L 200.975448 46.208296 
L 213.055068 43.49342 
" style="fill:none;stroke:#b0b0b0;stroke-dasharray:1.85,0.8;stroke-dashoffset:0;stroke-width:0.5;"/>
     </g>
    </g>
    <g id="xtick_10">
     <g id="line2d_2">
      <path clip-path="url(#p9ff11cc846)" d="M 213.741573 303.630577 
L 202.27913 299.999308 
L 191.269026 295.373781 
L 180.787127 289.810616 
L 170.902601 283.3706 
L 161.678061 276.117986 
L 153.169743 268.119889 
L 145.427706 259.445762 
L 138.496046 250.166953 
L 132.413107 240.356334 
L 127.211677 230.087986 
L 122.919171 219.436934 
L 119.557794 208.478936 
L 117.14467 197.290286 
L 115.691956 185.947665 
L 115.206913 174.528 
L 115.691956 163.108335 
L 117.14467 151.765714 
L 119.557794 140.577064 
L 122.919171 129.619066 
L 127.211677 118.968014 
L 132.413107 108.699666 
L 138.496046 98.889047 
L 145.427706 89.610238 
L 153.169743 80.936111 
L 161.678061 72.938014 
L 170.902601 65.6854 
L 180.787127 59.245384 
L 191.269026 53.682219 
L 202.27913 49.056692 
L 213.741573 45.425423 
" style="fill:none;stroke:#b0b0b0;stroke-dasharray:1.85,0.8;stroke-dashoffset:0;stroke-width:0.5;"/>
     </g>
    </g>
    <g id="xtick_11">
     <g id="line2d_3">
      <path clip-path="url(#p9ff11cc846)" d="M 215.065835 301.836601 
L 204.498128 297.411084 
L 194.476608 292.126332 
L 185.047608 286.049503 
L 176.251148 279.247072 
L 168.12171 271.784574 
L 160.688905 263.726469 
L 153.97806 255.136099 
L 148.010708 246.0757 
L 142.805003 236.606466 
L 138.376063 226.788641 
L 134.736252 216.681633 
L 131.895403 206.34414 
L 129.860992 195.834289 
L 128.63827 185.209774 
L 128.230352 174.528 
L 128.63827 163.846226 
L 129.860992 153.221711 
L 131.895403 142.71186 
L 134.736252 132.374367 
L 138.376063 122.267359 
L 142.805003 112.449534 
L 148.010708 102.9803 
L 153.97806 93.919901 
L 160.688905 85.329531 
L 168.12171 77.271426 
L 176.251148 69.808928 
L 185.047608 63.006497 
L 194.476608 56.929668 
L 204.498128 51.644916 
L 215.065835 47.219399 
" style="fill:none;stroke:#b0b0b0;stroke-dasharray:1.85,0.8;stroke-dashoffset:0;stroke-width:0.5;"/>
     </g>
    </g>
    <g id="xtick_12">
     <g id="line2d_4">
      <path clip-path="url(#p9ff11cc846)" d="M 216.966433 300.219612 
L 207.523641 295.122777 
L 198.665738 289.305855 
L 190.411996 282.835802 
L 182.77795 275.775713 
L 175.776186 268.185228 
L 169.416946 260.120952 
L 163.7086 251.636855 
L 158.657999 242.784647 
L 154.270746 233.614125 
L 150.551395 224.173492 
L 147.503607 214.509639 
L 145.130253 204.668409 
L 143.433497 194.694832 
L 142.414848 184.633345 
L 142.0752 174.528 
L 142.414848 164.422655 
L 143.433497 154.361168 
L 145.130253 144.387591 
L 147.503607 134.546361 
L 150.551395 124.882508 
L 154.270746 115.441875 
L 158.657999 106.271353 
L 163.7086 97.419145 
L 169.416946 88.935048 
L 175.776186 80.870772 
L 182.77795 73.280287 
L 190.411996 66.220198 
L 198.665738 59.750145 
L 207.523641 53.933223 
L 216.966433 48.836388 
" style="fill:none;stroke:#b0b0b0;stroke-dasharray:1.85,0.8;stroke-dashoffset:0;stroke-width:0.5;"/>
     </g>
    </g>
    <g id="xtick_13">
     <g id="line2d_5">
      <path clip-path="url(#p9ff11cc846)" d="M 219.372706 298.809922 
L 211.241741 293.160876 
L 203.682671 286.923847 
L 196.693944 280.158171 
L 190.273491 272.918159 
L 184.419072 265.253973 
L 179.128502 257.212361 
L 174.399769 248.837279 
L 170.2311 240.170412 
L 166.620985 231.251601 
L 163.568176 222.119213 
L 161.071673 212.810442 
L 159.130698 203.361571 
L 157.744678 193.808193 
L 156.913219 184.185409 
L 156.636091 174.528 
L 156.913219 164.870591 
L 157.744678 155.247807 
L 159.130698 145.694429 
L 161.071673 136.245558 
L 163.568176 126.936787 
L 166.620985 117.804399 
L 170.2311 108.885588 
L 174.399769 100.218721 
L 179.128502 91.843639 
L 184.419072 83.802027 
L 190.273491 76.137841 
L 196.693944 68.897829 
L 203.682671 62.132153 
L 211.241741 55.895124 
L 219.372706 50.246078 
" style="fill:none;stroke:#b0b0b0;stroke-dasharray:1.85,0.8;stroke-dashoffset:0;stroke-width:0.5;"/>
     </g>
    </g>
    <g id="xtick_14">
     <g id="line2d_6">
      <path clip-path="url(#p9ff11cc846)" d="M 222.20747 297.630453 
L 215.536392 291.542174 
L 209.378941 284.982692 
L 203.720714 277.999803 
L 198.549424 270.636786 
L 193.854697 262.933381 
L 189.627848 254.926547 
L 185.861672 246.651062 
L 182.550242 238.139994 
L 179.688734 229.42508 
L 177.273269 220.537019 
L 175.300783 211.505712 
L 173.768911 202.360454 
L 172.675909 193.130094 
L 172.020574 183.843165 
L 171.802207 174.528 
L 172.020574 165.212835 
L 172.675909 155.925906 
L 173.768911 146.695546 
L 175.300783 137.550288 
L 177.273269 128.518981 
L 179.688734 119.63092 
L 182.550242 110.916006 
L 185.861672 102.404938 
L 189.627848 94.129453 
L 193.854697 86.122619 
L 198.549424 78.419214 
L 203.720714 71.056197 
L 209.378941 64.073308 
L 215.536392 57.513826 
L 222.20747 51.425547 
" style="fill:none;stroke:#b0b0b0;stroke-dasharray:1.85,0.8;stroke-dashoffset:0;stroke-width:0.5;"/>
     </g>
    </g>
    <g id="xtick_15">
     <g id="line2d_7">
      <path clip-path="url(#p9ff11cc846)" d="M 225.389067 296.697995 
L 220.29117 290.276727 
L 215.611464 283.479898 
L 211.330758 276.342979 
L 207.433329 268.898422 
L 203.906322 261.176417 
L 200.739252 253.205453 
L 197.923596 245.012746 
L 195.45246 236.624556 
L 193.320301 228.06643 
L 191.522704 219.363385 
L 190.056208 210.540047 
L 188.918157 201.620761 
L 188.106594 192.629668 
L 187.620177 183.590774 
L 187.458124 174.528 
L 187.620177 165.465226 
L 188.106594 156.426332 
L 188.918157 147.435239 
L 190.056208 138.515953 
L 191.522704 129.692615 
L 193.320301 120.98957 
L 195.45246 112.431444 
L 197.923596 104.043254 
L 200.739252 95.850547 
L 203.906322 87.879583 
L 207.433329 80.157578 
L 211.330758 72.713021 
L 215.611464 65.576102 
L 220.29117 58.779273 
L 225.389067 52.358005 
" style="fill:none;stroke:#b0b0b0;stroke-dasharray:1.85,0.8;stroke-dashoffset:0;stroke-width:0.5;"/>
     </g>
    </g>
    <g id="xtick_16">
     <g id="line2d_8">
      <path clip-path="url(#p9ff11cc846)" d="M 228.832874 296.024348 
L 225.390099 289.370164 
L 222.241867 282.411052 
L 219.371152 275.171894 
L 216.764281 267.676273 
L 214.410257 259.946874 
L 212.300232 252.005767 
L 210.427096 243.874607 
L 208.785148 235.574781 
L 207.369837 227.127506 
L 206.177562 218.553905 
L 205.20551 209.875047 
L 204.451533 201.11198 
L 203.91405 192.285749 
L 203.59198 183.417404 
L 203.484692 174.528 
L 203.59198 165.638596 
L 203.91405 156.770251 
L 204.451533 147.94402 
L 205.20551 139.180953 
L 206.177562 130.502095 
L 207.369837 121.928494 
L 208.785148 113.481219 
L 210.427096 105.181393 
L 212.300232 97.050233 
L 214.410257 89.109126 
L 216.764281 81.379727 
L 219.371152 73.884106 
L 222.241867 66.644948 
L 225.390099 59.685836 
L 228.832874 53.031652 
" style="fill:none;stroke:#b0b0b0;stroke-dasharray:1.85,0.8;stroke-dashoffset:0;stroke-width:0.5;"/>
     </g>
    </g>
    <g id="xtick_17">
     <g id="line2d_9">
      <path clip-path="url(#p9ff11cc846)" d="M 232.452385 295.617255 
L 230.717917 288.825375 
L 229.13545 281.7718 
L 227.695157 274.474347 
L 226.389226 266.950847 
L 225.211432 259.219236 
L 224.156802 251.297605 
L 223.221362 243.204229 
L 222.401942 234.957578 
L 221.696024 226.576317 
L 221.101619 218.079296 
L 220.617179 209.485534 
L 220.241523 200.814194 
L 219.973785 192.084563 
L 219.813372 183.316018 
L 219.759939 174.528 
L 219.813372 165.739982 
L 219.973785 156.971437 
L 220.241523 148.241806 
L 220.617179 139.570466 
L 221.101619 130.976704 
L 221.696024 122.479683 
L 222.401942 114.098422 
L 223.221362 105.851771 
L 224.156802 97.758395 
L 225.211432 89.836764 
L 226.389226 82.105153 
L 227.695157 74.581653 
L 229.13545 67.2842 
L 230.717917 60.230625 
L 232.452385 53.438745 
" style="fill:none;stroke:#b0b0b0;stroke-dasharray:1.85,0.8;stroke-dashoffset:0;stroke-width:0.5;"/>
     </g>
    </g>
    <g id="xtick_18">
     <g id="line2d_10">
      <path clip-path="url(#p9ff11cc846)" d="M 236.16 295.481087 
L 236.16 288.643658 
L 236.16 281.55908 
L 236.16 274.242696 
L 236.16 266.710352 
L 236.16 258.978362 
L 236.16 251.063471 
L 236.16 242.982822 
L 236.16 234.753914 
L 236.16 226.394571 
L 236.16 217.922896 
L 236.16 209.357238 
L 236.16 200.716147 
L 236.16 192.018338 
L 236.16 183.282649 
L 236.16 174.528 
L 236.16 165.773351 
L 236.16 157.037662 
L 236.16 148.339853 
L 236.16 139.698762 
L 236.16 131.133104 
L 236.16 122.661429 
L 236.16 114.302086 
L 236.16 106.073178 
L 236.16 97.992529 
L 236.16 90.077638 
L 236.16 82.345648 
L 236.16 74.813304 
L 236.16 67.49692 
L 236.16 60.412342 
L 236.16 53.574913 
" style="fill:none;stroke:#b0b0b0;stroke-dasharray:1.85,0.8;stroke-dashoffset:0;stroke-width:0.5;"/>
     </g>
    </g>
    <g id="xtick_19">
     <g id="line2d_11">
      <path clip-path="url(#p9ff11cc846)" d="M 239.867615 295.617255 
L 241.602083 288.825375 
L 243.18455 281.7718 
L 244.624843 274.474347 
L 245.930774 266.950847 
L 247.108568 259.219236 
L 248.163198 251.297605 
L 249.098638 243.204229 
L 249.918058 234.957578 
L 250.623976 226.576317 
L 251.218381 218.079296 
L 251.702821 209.485534 
L 252.078477 200.814194 
L 252.346215 192.084563 
L 252.506628 183.316018 
L 252.560061 174.528 
L 252.506628 165.739982 
L 252.346215 156.971437 
L 252.078477 148.241806 
L 251.702821 139.570466 
L 251.218381 130.976704 
L 250.623976 122.479683 
L 249.918058 114.098422 
L 249.098638 105.851771 
L 248.163198 97.758395 
L 247.108568 89.836764 
L 245.930774 82.105153 
L 244.624843 74.581653 
L 243.18455 67.2842 
L 241.602083 60.230625 
L 239.867615 53.438745 
" style="fill:none;stroke:#b0b0b0;stroke-dasharray:1.85,0.8;stroke-dashoffset:0;stroke-width:0.5;"/>
     </g>
    </g>
    <g id="xtick_20">
     <g id="line2d_12">
      <path clip-path="url(#p9ff11cc846)" d="M 243.487126 296.024348 
L 246.929901 289.370164 
L 250.078133 282.411052 
L 252.948848 275.171894 
L 255.555719 267.676273 
L 257.909743 259.946874 
L 260.019768 252.005767 
L 261.892904 243.874607 
L 263.534852 235.574781 
L 264.950163 227.127506 
L 266.142438 218.553905 
L 267.11449 209.875047 
L 267.868467 201.11198 
L 268.40595 192.285749 
L 268.72802 183.417404 
L 268.835308 174.528 
L 268.72802 165.638596 
L 268.40595 156.770251 
L 267.868467 147.94402 
L 267.11449 139.180953 
L 266.142438 130.502095 
L 264.950163 121.928494 
L 263.534852 113.481219 
L 261.892904 105.181393 
L 260.019768 97.050233 
L 257.909743 89.109126 
L 255.555719 81.379727 
L 252.948848 73.884106 
L 250.078133 66.644948 
L 246.929901 59.685836 
L 243.487126 53.031652 
" style="fill:none;stroke:#b0b0b0;stroke-dasharray:1.85,0.8;stroke-dashoffset:0;stroke-width:0.5;"/>
     </g>
    </g>
    <g id="xtick_21">
     <g id="line2d_13">
      <path clip-path="url(#p9ff11cc846)" d="M 246.930933 296.697995 
L 252.02883 290.276727 
L 256.708536 283.479898 
L 260.989242 276.342979 
L 264.886671 268.898422 
L 268.413678 261.176417 
L 271.580748 253.205453 
L 274.396404 245.012746 
L 276.86754 236.624556 
L 278.999699 228.06643 
L 280.797296 219.363385 
L 282.263792 210.540047 
L 283.401843 201.620761 
L 284.213406 192.629668 
L 284.699823 183.590774 
L 284.861876 174.528 
L 284.699823 165.465226 
L 284.213406 156.426332 
L 283.401843 147.435239 
L 282.263792 138.515953 
L 280.797296 129.692615 
L 278.999699 120.98957 
L 276.86754 112.431444 
L 274.396404 104.043254 
L 271.580748 95.850547 
L 268.413678 87.879583 
L 264.886671 80.157578 
L 260.989242 72.713021 
L 256.708536 65.576102 
L 252.02883 58.779273 
L 246.930933 52.358005 
" style="fill:none;stroke:#b0b0b0;stroke-dasharray:1.85,0.8;stroke-dashoffset:0;stroke-width:0.5;"/>
     </g>
    </g>
    <g id="xtick_22">
     <g id="line2d_14">
      <path clip-path="url(#p9ff11cc846)" d="M 250.11253 297.630453 
L 256.783608 291.542174 
L 262.941059 284.982692 
L 268.599286 277.999803 
L 273.770576 270.636786 
L 278.465303 262.933381 
L 282.692152 254.926547 
L 286.458328 246.651062 
L 289.769758 238.139994 
L 292.631266 229.42508 
L 295.046731 220.537019 
L 297.019217 211.505712 
L 298.551089 202.360454 
L 299.644091 193.130094 
L 300.299426 183.843165 
L 300.517793 174.528 
L 300.299426 165.212835 
L 299.644091 155.925906 
L 298.551089 146.695546 
L 297.019217 137.550288 
L 295.046731 128.518981 
L 292.631266 119.63092 
L 289.769758 110.916006 
L 286.458328 102.404938 
L 282.692152 94.129453 
L 278.465303 86.122619 
L 273.770576 78.419214 
L 268.599286 71.056197 
L 262.941059 64.073308 
L 256.783608 57.513826 
L 250.11253 51.425547 
" style="fill:none;stroke:#b0b0b0;stroke-dasharray:1.85,0.8;stroke-dashoffset:0;stroke-width:0.5;"/>
     </g>
    </g>
    <g id="xtick_23">
     <g id="line2d_15">
      <path clip-path="url(#p9ff11cc846)" d="M 252.947294 298.809922 
L 261.078259 293.160876 
L 268.637329 286.923847 
L 275.626056 280.158171 
L 282.046509 272.918159 
L 287.900928 265.253973 
L 293.191498 257.212361 
L 297.920231 248.837279 
L 302.0889 240.170412 
L 305.699015 231.251601 
L 308.751824 222.119213 
L 311.248327 212.810442 
L 313.189302 203.361571 
L 314.575322 193.808193 
L 315.406781 184.185409 
L 315.683909 174.528 
L 315.406781 164.870591 
L 314.575322 155.247807 
L 313.189302 145.694429 
L 311.248327 136.245558 
L 308.751824 126.936787 
L 305.699015 117.804399 
L 302.0889 108.885588 
L 297.920231 100.218721 
L 293.191498 91.843639 
L 287.900928 83.802027 
L 282.046509 76.137841 
L 275.626056 68.897829 
L 268.637329 62.132153 
L 261.078259 55.895124 
L 252.947294 50.246078 
" style="fill:none;stroke:#b0b0b0;stroke-dasharray:1.85,0.8;stroke-dashoffset:0;stroke-width:0.5;"/>
     </g>
    </g>
    <g id="xtick_24">
     <g id="line2d_16">
      <path clip-path="url(#p9ff11cc846)" d="M 255.353567 300.219612 
L 264.796359 295.122777 
L 273.654262 289.305855 
L 281.908004 282.835802 
L 289.54205 275.775713 
L 296.543814 268.185228 
L 302.903054 260.120952 
L 308.6114 251.636855 
L 313.662001 242.784647 
L 318.049254 233.614125 
L 321.768605 224.173492 
L 324.816393 214.509639 
L 327.189747 204.668409 
L 328.886503 194.694832 
L 329.905152 184.633345 
L 330.2448 174.528 
L 329.905152 164.422655 
L 328.886503 154.361168 
L 327.189747 144.387591 
L 324.816393 134.546361 
L 321.768605 124.882508 
L 318.049254 115.441875 
L 313.662001 106.271353 
L 308.6114 97.419145 
L 302.903054 88.935048 
L 296.543814 80.870772 
L 289.54205 73.280287 
L 281.908004 66.220198 
L 273.654262 59.750145 
L 264.796359 53.933223 
L 255.353567 48.836388 
" style="fill:none;stroke:#b0b0b0;stroke-dasharray:1.85,0.8;stroke-dashoffset:0;stroke-width:0.5;"/>
     </g>
    </g>
    <g id="xtick_25">
     <g id="line2d_17">
      <path clip-path="url(#p9ff11cc846)" d="M 257.254165 301.836601 
L 267.821872 297.411084 
L 277.843392 292.126332 
L 287.272392 286.049503 
L 296.068852 279.247072 
L 304.19829 271.784574 
L 311.631095 263.726469 
L 318.34194 255.136099 
L 324.309292 246.0757 
L 329.514997 236.606466 
L 333.943937 226.788641 
L 337.583748 216.681633 
L 340.424597 206.34414 
L 342.459008 195.834289 
L 343.68173 185.209774 
L 344.089648 174.528 
L 343.68173 163.846226 
L 342.459008 153.221711 
L 340.424597 142.71186 
L 337.583748 132.374367 
L 333.943937 122.267359 
L 329.514997 112.449534 
L 324.309292 102.9803 
L 318.34194 93.919901 
L 311.631095 85.329531 
L 304.19829 77.271426 
L 296.068852 69.808928 
L 287.272392 63.006497 
L 277.843392 56.929668 
L 267.821872 51.644916 
L 257.254165 47.219399 
" style="fill:none;stroke:#b0b0b0;stroke-dasharray:1.85,0.8;stroke-dashoffset:0;stroke-width:0.5;"/>
     </g>
    </g>
    <g id="xtick_26">
     <g id="line2d_18">
      <path clip-path="url(#p9ff11cc846)" d="M 258.578427 303.630577 
L 270.04087 299.999308 
L 281.050974 295.373781 
L 291.532873 289.810616 
L 301.417399 283.3706 
L 310.641939 276.117986 
L 319.150257 268.119889 
L 326.892294 259.445762 
L 333.823954 250.166953 
L 339.906893 240.356334 
L 345.108323 230.087986 
L 349.400829 219.436934 
L 352.762206 208.478936 
L 355.17533 197.290286 
L 356.628044 185.947665 
L 357.113087 174.528 
L 356.628044 163.108335 
L 355.17533 151.765714 
L 352.762206 140.577064 
L 349.400829 129.619066 
L 345.108323 118.968014 
L 339.906893 108.699666 
L 333.823954 98.889047 
L 326.892294 89.610238 
L 319.150257 80.936111 
L 310.641939 72.938014 
L 301.417399 65.6854 
L 291.532873 59.245384 
L 281.050974 53.682219 
L 270.04087 49.056692 
L 258.578427 45.425423 
" style="fill:none;stroke:#b0b0b0;stroke-dasharray:1.85,0.8;stroke-dashoffset:0;stroke-width:0.5;"/>
     </g>
    </g>
    <g id="xtick_27">
     <g id="line2d_19">
      <path clip-path="url(#p9ff11cc846)" d="M 259.264932 305.56258 
L 271.344552 302.847704 
L 283.119529 299.021782 
L 294.487911 294.117941 
L 305.351266 288.178639 
L 315.615534 281.255304 
L 325.191842 273.407878 
L 333.997275 264.704309 
L 341.955593 255.219956 
L 348.997887 245.036938 
L 355.063185 234.243424 
L 360.098968 222.932869 
L 364.061636 211.203204 
L 366.916878 199.15599 
L 368.639973 186.895537 
L 369.216 174.528 
L 368.639973 162.160463 
L 366.916878 149.90001 
L 364.061636 137.852796 
L 360.098968 126.123131 
L 355.063185 114.812576 
L 348.997887 104.019062 
L 341.955593 93.836044 
L 333.997275 84.351691 
L 325.191842 75.648122 
L 315.615534 67.800696 
L 305.351266 60.877361 
L 294.487911 54.938059 
L 283.119529 50.034218 
L 271.344552 46.208296 
L 259.264932 43.49342 
" style="fill:none;stroke:#b0b0b0;stroke-dasharray:1.85,0.8;stroke-dashoffset:0;stroke-width:0.5;"/>
     </g>
    </g>
   </g>
   <g id="matplotlib.axis_4">
    <g id="ytick_1">
     <g id="line2d_20">
      <path clip-path="url(#p9ff11cc846)" d="M 213.055068 305.56258 
L 213.387385 304.389313 
L 213.957212 303.259359 
L 214.752758 302.182352 
L 215.760697 301.166689 
L 216.966433 300.219612 
L 218.354336 299.347304 
L 219.907939 298.554993 
L 221.610106 297.847045 
L 223.443174 297.227067 
L 225.389067 296.697995 
L 227.42939 296.262172 
L 229.545511 295.92142 
L 231.718621 295.677095 
L 233.929787 295.530134 
L 236.16 295.481087 
L 238.390213 295.530134 
L 240.601379 295.677095 
L 242.774489 295.92142 
L 244.89061 296.262172 
L 246.930933 296.697995 
L 248.876826 297.227067 
L 250.709894 297.847045 
L 252.412061 298.554993 
L 253.965664 299.347304 
L 255.353567 300.219612 
L 256.559303 301.166689 
L 257.567242 302.182352 
L 258.362788 303.259359 
L 258.932615 304.389313 
L 259.264932 305.56258 
" style="fill:none;stroke:#b0b0b0;stroke-dasharray:1.85,0.8;stroke-dashoffset:0;stroke-width:0.5;"/>
     </g>
    </g>
    <g id="ytick_2">
     <g id="line2d_21">
      <path clip-path="url(#p9ff11cc846)" d="M 190.652168 299.559741 
L 191.689414 297.382942 
L 193.149597 295.3381 
L 194.999961 293.433949 
L 197.207703 291.676584 
L 199.740292 290.070022 
L 202.565663 288.61668 
L 205.652327 287.317782 
L 208.969402 286.173697 
L 212.486614 285.18422 
L 216.17425 284.348795 
L 220.003105 283.666691 
L 223.944405 283.137141 
L 227.969729 282.75945 
L 232.05092 282.533069 
L 236.16 282.457648 
L 240.26908 282.533069 
L 244.350271 282.75945 
L 248.375595 283.137141 
L 252.316895 283.666691 
L 256.14575 284.348795 
L 259.833386 285.18422 
L 263.350598 286.173697 
L 266.667673 287.317782 
L 269.754337 288.61668 
L 272.579708 290.070022 
L 275.112297 291.676584 
L 277.320039 293.433949 
L 279.170403 295.3381 
L 280.630586 297.382942 
L 281.667832 299.559741 
" style="fill:none;stroke:#b0b0b0;stroke-dasharray:1.85,0.8;stroke-dashoffset:0;stroke-width:0.5;"/>
     </g>
    </g>
    <g id="ytick_3">
     <g id="line2d_22">
      <path clip-path="url(#p9ff11cc846)" d="M 169.632 289.757876 
L 171.66049 286.859793 
L 174.225447 284.198353 
L 177.273977 281.770401 
L 180.756737 279.570683 
L 184.627633 277.592734 
L 188.843458 275.829523 
L 193.363524 274.273929 
L 198.149289 272.919079 
L 203.164025 271.758587 
L 208.372502 270.786718 
L 213.740709 269.998499 
L 219.235608 269.389793 
L 224.824902 268.957346 
L 230.476835 268.698819 
L 236.16 268.6128 
L 241.843165 268.698819 
L 247.495098 268.957346 
L 253.084392 269.389793 
L 258.579291 269.998499 
L 263.947498 270.786718 
L 269.155975 271.758587 
L 274.170711 272.919079 
L 278.956476 274.273929 
L 283.476542 275.829523 
L 287.692367 277.592734 
L 291.563263 279.570683 
L 295.046023 281.770401 
L 298.094553 284.198353 
L 300.65951 286.859793 
L 302.688 289.757876 
" style="fill:none;stroke:#b0b0b0;stroke-dasharray:1.85,0.8;stroke-dashoffset:0;stroke-width:0.5;"/>
     </g>
    </g>
    <g id="ytick_4">
     <g id="line2d_23">
      <path clip-path="url(#p9ff11cc846)" d="M 150.633252 276.454809 
L 153.822909 273.194026 
L 157.587931 270.258486 
L 161.864023 267.627091 
L 166.593859 265.279586 
L 171.725797 263.197099 
L 177.212798 261.362442 
L 183.011517 259.760236 
L 189.081564 258.376945 
L 195.384892 257.20085 
L 201.885302 256.221988 
L 208.548037 255.432086 
L 215.339439 254.824486 
L 222.226673 254.394085 
L 229.177487 254.137275 
L 236.16 254.051909 
L 243.142513 254.137275 
L 250.093327 254.394085 
L 256.980561 254.824486 
L 263.771963 255.432086 
L 270.434698 256.221988 
L 276.935108 257.20085 
L 283.238436 258.376945 
L 289.308483 259.760236 
L 295.107202 261.362442 
L 300.594203 263.197099 
L 305.726141 265.279586 
L 310.455977 267.627091 
L 314.732069 270.258486 
L 318.497091 273.194026 
L 321.686748 276.454809 
" style="fill:none;stroke:#b0b0b0;stroke-dasharray:1.85,0.8;stroke-dashoffset:0;stroke-width:0.5;"/>
     </g>
    </g>
    <g id="ytick_5">
     <g id="line2d_24">
      <path clip-path="url(#p9ff11cc846)" d="M 134.233191 260.054748 
L 138.621486 256.823354 
L 143.562214 253.962604 
L 148.991629 251.435047 
L 154.85421 249.208091 
L 161.100705 247.253611 
L 167.686631 245.547496 
L 174.57114 244.06921 
L 181.716149 242.80139 
L 189.085679 241.729491 
L 196.645339 240.841476 
L 204.361933 240.127564 
L 212.203155 239.580021 
L 220.13734 239.192995 
L 228.133268 238.962393 
L 236.16 238.885793 
L 244.186732 238.962393 
L 252.18266 239.192995 
L 260.116845 239.580021 
L 267.958067 240.127564 
L 275.674661 240.841476 
L 283.234321 241.729491 
L 290.603851 242.80139 
L 297.74886 244.06921 
L 304.633369 245.547496 
L 311.219295 247.253611 
L 317.46579 249.208091 
L 323.328371 251.435047 
L 328.757786 253.962604 
L 333.698514 256.823354 
L 338.086809 260.054748 
" style="fill:none;stroke:#b0b0b0;stroke-dasharray:1.85,0.8;stroke-dashoffset:0;stroke-width:0.5;"/>
     </g>
    </g>
    <g id="ytick_6">
     <g id="line2d_25">
      <path clip-path="url(#p9ff11cc846)" d="M 120.930124 241.056 
L 126.420805 238.234947 
L 132.40285 235.770514 
L 138.82311 233.617527 
L 145.635177 231.738652 
L 152.797505 230.102997 
L 160.272054 228.684991 
L 168.023327 227.463478 
L 176.017668 226.420995 
L 184.222749 225.543206 
L 192.607201 224.818441 
L 201.140335 224.237347 
L 209.79195 223.792607 
L 218.532175 223.478731 
L 227.331363 223.291904 
L 236.16 223.229876 
L 244.988637 223.291904 
L 253.787825 223.478731 
L 262.52805 223.792607 
L 271.179665 224.237347 
L 279.712799 224.818441 
L 288.097251 225.543206 
L 296.302332 226.420995 
L 304.296673 227.463478 
L 312.047946 228.684991 
L 319.522495 230.102997 
L 326.684823 231.738652 
L 333.49689 233.617527 
L 339.91715 235.770514 
L 345.899195 238.234947 
L 351.389876 241.056 
" style="fill:none;stroke:#b0b0b0;stroke-dasharray:1.85,0.8;stroke-dashoffset:0;stroke-width:0.5;"/>
     </g>
    </g>
    <g id="ytick_7">
     <g id="line2d_26">
      <path clip-path="url(#p9ff11cc846)" d="M 111.128259 220.035832 
L 117.504181 217.953073 
L 124.300483 216.151099 
L 131.479057 214.589497 
L 139.005296 213.235894 
L 146.846944 212.06419 
L 154.973306 211.05324 
L 163.354714 210.185864 
L 171.962158 209.448094 
L 180.767038 208.828604 
L 189.740991 208.318275 
L 198.855784 207.909856 
L 208.083242 207.597716 
L 217.395205 207.377652 
L 226.763515 207.246753 
L 236.16 207.203308 
L 245.556485 207.246753 
L 254.924795 207.377652 
L 264.236758 207.597716 
L 273.464216 207.909856 
L 282.579009 208.318275 
L 291.552962 208.828604 
L 300.357842 209.448094 
L 308.965286 210.185864 
L 317.346694 211.05324 
L 325.473056 212.06419 
L 333.314704 213.235894 
L 340.840943 214.589497 
L 348.019517 216.151099 
L 354.815819 217.953073 
L 361.191741 220.035832 
" style="fill:none;stroke:#b0b0b0;stroke-dasharray:1.85,0.8;stroke-dashoffset:0;stroke-width:0.5;"/>
     </g>
    </g>
    <g id="ytick_8">
     <g id="line2d_27">
      <path clip-path="url(#p9ff11cc846)" d="M 105.12542 197.632932 
L 112.073584 196.528303 
L 119.387306 195.578173 
L 127.041149 194.758761 
L 135.01006 194.051345 
L 143.269057 193.441047 
L 151.793044 192.915958 
L 160.556697 192.466498 
L 169.534408 192.084945 
L 178.70026 191.765082 
L 188.028031 191.501929 
L 197.491215 191.29155 
L 207.063052 191.130896 
L 216.716569 191.0177 
L 226.424634 190.950395 
L 236.16 190.928061 
L 245.895366 190.950395 
L 255.603431 191.0177 
L 265.256948 191.130896 
L 274.828785 191.29155 
L 284.291969 191.501929 
L 293.61974 191.765082 
L 302.785592 192.084945 
L 311.763303 192.466498 
L 320.526956 192.915958 
L 329.050943 193.441047 
L 337.30994 194.051345 
L 345.278851 194.758761 
L 352.932694 195.578173 
L 360.246416 196.528303 
L 367.19458 197.632932 
" style="fill:none;stroke:#b0b0b0;stroke-dasharray:1.85,0.8;stroke-dashoffset:0;stroke-width:0.5;"/>
     </g>
    </g>
    <g id="ytick_9">
     <g id="line2d_28">
      <path clip-path="url(#p9ff11cc846)" d="M 103.104 174.528 
L 110.249962 174.528 
L 117.741034 174.528 
L 125.556684 174.528 
L 133.675491 174.528 
L 142.0752 174.528 
L 150.732789 174.528 
L 159.624529 174.528 
L 168.726046 174.528 
L 178.012396 174.528 
L 187.458124 174.528 
L 197.03734 174.528 
L 206.723789 174.528 
L 216.490921 174.528 
L 226.311964 174.528 
L 236.16 174.528 
L 246.008036 174.528 
L 255.829079 174.528 
L 265.596211 174.528 
L 275.28266 174.528 
L 284.861876 174.528 
L 294.307604 174.528 
L 303.593954 174.528 
L 312.695471 174.528 
L 321.587211 174.528 
L 330.2448 174.528 
L 338.644509 174.528 
L 346.763316 174.528 
L 354.578966 174.528 
L 362.070038 174.528 
L 369.216 174.528 
" style="fill:none;stroke:#b0b0b0;stroke-dasharray:1.85,0.8;stroke-dashoffset:0;stroke-width:0.5;"/>
     </g>
    </g>
    <g id="ytick_10">
     <g id="line2d_29">
      <path clip-path="url(#p9ff11cc846)" d="M 105.12542 151.423068 
L 112.073584 152.527697 
L 119.387306 153.477827 
L 127.041149 154.297239 
L 135.01006 155.004655 
L 143.269057 155.614953 
L 151.793044 156.140042 
L 160.556697 156.589502 
L 169.534408 156.971055 
L 178.70026 157.290918 
L 188.028031 157.554071 
L 197.491215 157.76445 
L 207.063052 157.925104 
L 216.716569 158.0383 
L 226.424634 158.105605 
L 236.16 158.127939 
L 245.895366 158.105605 
L 255.603431 158.0383 
L 265.256948 157.925104 
L 274.828785 157.76445 
L 284.291969 157.554071 
L 293.61974 157.290918 
L 302.785592 156.971055 
L 311.763303 156.589502 
L 320.526956 156.140042 
L 329.050943 155.614953 
L 337.30994 155.004655 
L 345.278851 154.297239 
L 352.932694 153.477827 
L 360.246416 152.527697 
L 367.19458 151.423068 
" style="fill:none;stroke:#b0b0b0;stroke-dasharray:1.85,0.8;stroke-dashoffset:0;stroke-width:0.5;"/>
     </g>
    </g>
    <g id="ytick_11">
     <g id="line2d_30">
      <path clip-path="url(#p9ff11cc846)" d="M 111.128259 129.020168 
L 117.504181 131.102927 
L 124.300483 132.904901 
L 131.479057 134.466503 
L 139.005296 135.820106 
L 146.846944 136.99181 
L 154.973306 138.00276 
L 163.354714 138.870136 
L 171.962158 139.607906 
L 180.767038 140.227396 
L 189.740991 140.737725 
L 198.855784 141.146144 
L 208.083242 141.458284 
L 217.395205 141.678348 
L 226.763515 141.809247 
L 236.16 141.852692 
L 245.556485 141.809247 
L 254.924795 141.678348 
L 264.236758 141.458284 
L 273.464216 141.146144 
L 282.579009 140.737725 
L 291.552962 140.227396 
L 300.357842 139.607906 
L 308.965286 138.870136 
L 317.346694 138.00276 
L 325.473056 136.99181 
L 333.314704 135.820106 
L 340.840943 134.466503 
L 348.019517 132.904901 
L 354.815819 131.102927 
L 361.191741 129.020168 
" style="fill:none;stroke:#b0b0b0;stroke-dasharray:1.85,0.8;stroke-dashoffset:0;stroke-width:0.5;"/>
     </g>
    </g>
    <g id="ytick_12">
     <g id="line2d_31">
      <path clip-path="url(#p9ff11cc846)" d="M 120.930124 108 
L 126.420805 110.821053 
L 132.40285 113.285486 
L 138.82311 115.438473 
L 145.635177 117.317348 
L 152.797505 118.953003 
L 160.272054 120.371009 
L 168.023327 121.592522 
L 176.017668 122.635005 
L 184.222749 123.512794 
L 192.607201 124.237559 
L 201.140335 124.818653 
L 209.79195 125.263393 
L 218.532175 125.577269 
L 227.331363 125.764096 
L 236.16 125.826124 
L 244.988637 125.764096 
L 253.787825 125.577269 
L 262.52805 125.263393 
L 271.179665 124.818653 
L 279.712799 124.237559 
L 288.097251 123.512794 
L 296.302332 122.635005 
L 304.296673 121.592522 
L 312.047946 120.371009 
L 319.522495 118.953003 
L 326.684823 117.317348 
L 333.49689 115.438473 
L 339.91715 113.285486 
L 345.899195 110.821053 
L 351.389876 108 
" style="fill:none;stroke:#b0b0b0;stroke-dasharray:1.85,0.8;stroke-dashoffset:0;stroke-width:0.5;"/>
     </g>
    </g>
    <g id="ytick_13">
     <g id="line2d_32">
      <path clip-path="url(#p9ff11cc846)" d="M 134.233191 89.001252 
L 138.621486 92.232646 
L 143.562214 95.093396 
L 148.991629 97.620953 
L 154.85421 99.847909 
L 161.100705 101.802389 
L 167.686631 103.508504 
L 174.57114 104.98679 
L 181.716149 106.25461 
L 189.085679 107.326509 
L 196.645339 108.214524 
L 204.361933 108.928436 
L 212.203155 109.475979 
L 220.13734 109.863005 
L 228.133268 110.093607 
L 236.16 110.170207 
L 244.186732 110.093607 
L 252.18266 109.863005 
L 260.116845 109.475979 
L 267.958067 108.928436 
L 275.674661 108.214524 
L 283.234321 107.326509 
L 290.603851 106.25461 
L 297.74886 104.98679 
L 304.633369 103.508504 
L 311.219295 101.802389 
L 317.46579 99.847909 
L 323.328371 97.620953 
L 328.757786 95.093396 
L 333.698514 92.232646 
L 338.086809 89.001252 
" style="fill:none;stroke:#b0b0b0;stroke-dasharray:1.85,0.8;stroke-dashoffset:0;stroke-width:0.5;"/>
     </g>
    </g>
    <g id="ytick_14">
     <g id="line2d_33">
      <path clip-path="url(#p9ff11cc846)" d="M 150.633252 72.601191 
L 153.822909 75.861974 
L 157.587931 78.797514 
L 161.864023 81.428909 
L 166.593859 83.776414 
L 171.725797 85.858901 
L 177.212798 87.693558 
L 183.011517 89.295764 
L 189.081564 90.679055 
L 195.384892 91.85515 
L 201.885302 92.834012 
L 208.548037 93.623914 
L 215.339439 94.231514 
L 222.226673 94.661915 
L 229.177487 94.918725 
L 236.16 95.004091 
L 243.142513 94.918725 
L 250.093327 94.661915 
L 256.980561 94.231514 
L 263.771963 93.623914 
L 270.434698 92.834012 
L 276.935108 91.85515 
L 283.238436 90.679055 
L 289.308483 89.295764 
L 295.107202 87.693558 
L 300.594203 85.858901 
L 305.726141 83.776414 
L 310.455977 81.428909 
L 314.732069 78.797514 
L 318.497091 75.861974 
L 321.686748 72.601191 
" style="fill:none;stroke:#b0b0b0;stroke-dasharray:1.85,0.8;stroke-dashoffset:0;stroke-width:0.5;"/>
     </g>
    </g>
    <g id="ytick_15">
     <g id="line2d_34">
      <path clip-path="url(#p9ff11cc846)" d="M 169.632 59.298124 
L 171.66049 62.196207 
L 174.225447 64.857647 
L 177.273977 67.285599 
L 180.756737 69.485317 
L 184.627633 71.463266 
L 188.843458 73.226477 
L 193.363524 74.782071 
L 198.149289 76.136921 
L 203.164025 77.297413 
L 208.372502 78.269282 
L 213.740709 79.057501 
L 219.235608 79.666207 
L 224.824902 80.098654 
L 230.476835 80.357181 
L 236.16 80.4432 
L 241.843165 80.357181 
L 247.495098 80.098654 
L 253.084392 79.666207 
L 258.579291 79.057501 
L 263.947498 78.269282 
L 269.155975 77.297413 
L 274.170711 76.136921 
L 278.956476 74.782071 
L 283.476542 73.226477 
L 287.692367 71.463266 
L 291.563263 69.485317 
L 295.046023 67.285599 
L 298.094553 64.857647 
L 300.65951 62.196207 
L 302.688 59.298124 
" style="fill:none;stroke:#b0b0b0;stroke-dasharray:1.85,0.8;stroke-dashoffset:0;stroke-width:0.5;"/>
     </g>
    </g>
    <g id="ytick_16">
     <g id="line2d_35">
      <path clip-path="url(#p9ff11cc846)" d="M 190.652168 49.496259 
L 191.689414 51.673058 
L 193.149597 53.7179 
L 194.999961 55.622051 
L 197.207703 57.379416 
L 199.740292 58.985978 
L 202.565663 60.43932 
L 205.652327 61.738218 
L 208.969402 62.882303 
L 212.486614 63.87178 
L 216.17425 64.707205 
L 220.003105 65.389309 
L 223.944405 65.918859 
L 227.969729 66.29655 
L 232.05092 66.522931 
L 236.16 66.598352 
L 240.26908 66.522931 
L 244.350271 66.29655 
L 248.375595 65.918859 
L 252.316895 65.389309 
L 256.14575 64.707205 
L 259.833386 63.87178 
L 263.350598 62.882303 
L 266.667673 61.738218 
L 269.754337 60.43932 
L 272.579708 58.985978 
L 275.112297 57.379416 
L 277.320039 55.622051 
L 279.170403 53.7179 
L 280.630586 51.673058 
L 281.667832 49.496259 
" style="fill:none;stroke:#b0b0b0;stroke-dasharray:1.85,0.8;stroke-dashoffset:0;stroke-width:0.5;"/>
     </g>
    </g>
    <g id="ytick_17">
     <g id="line2d_36">
      <path clip-path="url(#p9ff11cc846)" d="M 213.055068 43.49342 
L 213.387385 44.666687 
L 213.957212 45.796641 
L 214.752758 46.873648 
L 215.760697 47.889311 
L 216.966433 48.836388 
L 218.354336 49.708696 
L 219.907939 50.501007 
L 221.610106 51.208955 
L 223.443174 51.828933 
L 225.389067 52.358005 
L 227.42939 52.793828 
L 229.545511 53.13458 
L 231.718621 53.378905 
L 233.929787 53.525866 
L 236.16 53.574913 
L 238.390213 53.525866 
L 240.601379 53.378905 
L 242.774489 53.13458 
L 244.89061 52.793828 
L 246.930933 52.358005 
L 248.876826 51.828933 
L 250.709894 51.208955 
L 252.412061 50.501007 
L 253.965664 49.708696 
L 255.353567 48.836388 
L 256.559303 47.889311 
L 257.567242 46.873648 
L 258.362788 45.796641 
L 258.932615 44.666687 
L 259.264932 43.49342 
" style="fill:none;stroke:#b0b0b0;stroke-dasharray:1.85,0.8;stroke-dashoffset:0;stroke-width:0.5;"/>
     </g>
    </g>
   </g>
   <g id="line2d_37">
    <defs>
     <path d="M -2.5 2.5 
L 2.5 2.5 
L 2.5 -2.5 
L -2.5 -2.5 
z
" id="m47fa9e16a8" style="stroke:#4c4c4c;stroke-linejoin:miter;"/>
    </defs>
    <g clip-path="url(#p9ff11cc846)">
     <use style="fill-opacity:0;stroke:#4c4c4c;stroke-linejoin:miter;" x="207.752848" xlink:href="#m47fa9e16a8" y="262.644581"/>
    </g>
   </g>
   <g id="line2d_38">
    <defs>
     <path d="M 0 -2.5 
L -2.5 2.5 
L 2.5 2.5 
z
" id="macefaf09b0" style="stroke:#4c4c4c;stroke-linejoin:miter;"/>
    </defs>
    <g clip-path="url(#p9ff11cc846)">
     <use style="fill-opacity:0;stroke:#4c4c4c;stroke-linejoin:miter;" x="121.271561" xlink:href="#macefaf09b0" y="127.308142"/>
    </g>
   </g>
   <g id="line2d_39">
    <defs>
     <path d="M 0 2.5 
C 0.663008 2.5 1.29895 2.236584 1.767767 1.767767 
C 2.236584 1.29895 2.5 0.663008 2.5 0 
C 2.5 -0.663008 2.236584 -1.29895 1.767767 -1.767767 
C 1.29895 -2.236584 0.663008 -2.5 0 -2.5 
C -0.663008 -2.5 -1.29895 -2.236584 -1.767767 -1.767767 
C -2.236584 -1.29895 -2.5 -0.663008 -2.5 0 
C -2.5 0.663008 -2.236584 1.29895 -1.767767 1.767767 
C -1.29895 2.236584 -0.663008 2.5 0 2.5 
z
" id="m616f4b81c6" style="stroke:#4c4c4c;"/>
    </defs>
    <g clip-path="url(#p9ff11cc846)">
     <use style="fill-opacity:0;stroke:#4c4c4c;" x="265.456864" xlink:href="#m616f4b81c6" y="131.510418"/>
    </g>
   </g>
   <g id="line2d_40">
    <g clip-path="url(#p9ff11cc846)">
     <use style="fill-opacity:0;stroke:#4c4c4c;stroke-linejoin:miter;" x="243.293292" xlink:href="#m47fa9e16a8" y="280.513107"/>
    </g>
   </g>
   <g id="line2d_41">
    <g clip-path="url(#p9ff11cc846)">
     <use style="fill-opacity:0;stroke:#4c4c4c;stroke-linejoin:miter;" x="123.333804" xlink:href="#macefaf09b0" y="169.302456"/>
    </g>
   </g>
   <g id="line2d_42">
    <g clip-path="url(#p9ff11cc846)">
     <use style="fill-opacity:0;stroke:#4c4c4c;" x="262.871545" xlink:href="#m616f4b81c6" y="139.162881"/>
    </g>
   </g>
   <g id="line2d_43">
    <g clip-path="url(#p9ff11cc846)">
     <use style="fill-opacity:0;stroke:#4c4c4c;stroke-linejoin:miter;" x="300.901464" xlink:href="#m47fa9e16a8" y="271.326553"/>
    </g>
   </g>
   <g id="line2d_44">
    <g clip-path="url(#p9ff11cc846)">
     <use style="fill-opacity:0;stroke:#4c4c4c;stroke-linejoin:miter;" x="150.174851" xlink:href="#macefaf09b0" y="216.798417"/>
    </g>
   </g>
   <g id="line2d_45">
    <g clip-path="url(#p9ff11cc846)">
     <use style="fill-opacity:0;stroke:#4c4c4c;" x="265.41373" xlink:href="#m616f4b81c6" y="131.003803"/>
    </g>
   </g>
   <g id="line2d_46">
    <g clip-path="url(#p9ff11cc846)">
     <use style="fill-opacity:0;stroke:#4c4c4c;stroke-linejoin:miter;" x="161.940966" xlink:href="#m47fa9e16a8" y="74.113202"/>
    </g>
   </g>
   <g id="line2d_47">
    <g clip-path="url(#p9ff11cc846)">
     <use style="fill-opacity:0;stroke:#4c4c4c;stroke-linejoin:miter;" x="170.452617" xlink:href="#macefaf09b0" y="232.12281"/>
    </g>
   </g>
   <g id="line2d_48">
    <g clip-path="url(#p9ff11cc846)">
     <use style="fill-opacity:0;stroke:#4c4c4c;" x="287.415782" xlink:href="#m616f4b81c6" y="148.658136"/>
    </g>
   </g>
   <g id="line2d_49">
    <g clip-path="url(#p9ff11cc846)">
     <use style="fill-opacity:0;stroke:#4c4c4c;stroke-linejoin:miter;" x="141.216682" xlink:href="#m47fa9e16a8" y="113.980209"/>
    </g>
   </g>
   <g id="line2d_50">
    <g clip-path="url(#p9ff11cc846)">
     <use style="fill-opacity:0;stroke:#4c4c4c;stroke-linejoin:miter;" x="201.605975" xlink:href="#macefaf09b0" y="259.723712"/>
    </g>
   </g>
   <g id="line2d_51">
    <g clip-path="url(#p9ff11cc846)">
     <use style="fill-opacity:0;stroke:#4c4c4c;" x="285.060917" xlink:href="#m616f4b81c6" y="141.681765"/>
    </g>
   </g>
   <g id="line2d_52">
    <g clip-path="url(#p9ff11cc846)">
     <use style="fill-opacity:0;stroke:#4c4c4c;stroke-linejoin:miter;" x="213.582076" xlink:href="#m47fa9e16a8" y="263.493839"/>
    </g>
   </g>
   <g id="line2d_53">
    <g clip-path="url(#p9ff11cc846)">
     <use style="fill-opacity:0;stroke:#4c4c4c;stroke-linejoin:miter;" x="127.678134" xlink:href="#macefaf09b0" y="129.957121"/>
    </g>
   </g>
   <g id="line2d_54">
    <g clip-path="url(#p9ff11cc846)">
     <use style="fill-opacity:0;stroke:#4c4c4c;" x="273.451213" xlink:href="#m616f4b81c6" y="132.547777"/>
    </g>
   </g>
   <g id="line2d_55">
    <g clip-path="url(#p9ff11cc846)">
     <use style="fill-opacity:0;stroke:#4c4c4c;stroke-linejoin:miter;" x="237.100383" xlink:href="#m47fa9e16a8" y="270.977278"/>
    </g>
   </g>
   <g id="line2d_56">
    <g clip-path="url(#p9ff11cc846)">
     <use style="fill-opacity:0;stroke:#4c4c4c;stroke-linejoin:miter;" x="120.040437" xlink:href="#macefaf09b0" y="160.908453"/>
    </g>
   </g>
   <g id="line2d_57">
    <g clip-path="url(#p9ff11cc846)">
     <use style="fill-opacity:0;stroke:#4c4c4c;" x="261.046712" xlink:href="#m616f4b81c6" y="129.450681"/>
    </g>
   </g>
   <g id="line2d_58">
    <g clip-path="url(#p9ff11cc846)">
     <use style="fill-opacity:0;stroke:#4c4c4c;stroke-linejoin:miter;" x="243.228844" xlink:href="#m47fa9e16a8" y="287.305474"/>
    </g>
   </g>
   <g id="line2d_59">
    <g clip-path="url(#p9ff11cc846)">
     <use style="fill-opacity:0;stroke:#4c4c4c;stroke-linejoin:miter;" x="136.102604" xlink:href="#macefaf09b0" y="166.852156"/>
    </g>
   </g>
   <g id="line2d_60">
    <g clip-path="url(#p9ff11cc846)">
     <use style="fill-opacity:0;stroke:#4c4c4c;" x="278.377743" xlink:href="#m616f4b81c6" y="147.520631"/>
    </g>
   </g>
   <g id="line2d_61">
    <defs>
     <path d="M -3.5 3.5 
L 3.5 3.5 
L 3.5 -3.5 
L -3.5 -3.5 
z
" id="mcfde1eddfe" style="stroke:#000000;stroke-linejoin:miter;"/>
    </defs>
    <g clip-path="url(#p9ff11cc846)">
     <use style="stroke:#000000;stroke-linejoin:miter;" x="258.898339" xlink:href="#mcfde1eddfe" y="281.309233"/>
    </g>
   </g>
   <g id="line2d_62">
    <defs>
     <path d="M 0 -3.5 
L -3.5 3.5 
L 3.5 3.5 
z
" id="mf0b51097a8" style="stroke:#000000;stroke-linejoin:miter;"/>
    </defs>
    <g clip-path="url(#p9ff11cc846)">
     <use style="stroke:#000000;stroke-linejoin:miter;" x="134.92857" xlink:href="#mf0b51097a8" y="179.51646"/>
    </g>
   </g>
   <g id="line2d_63">
    <defs>
     <path d="M 0 3.5 
C 0.928211 3.5 1.81853 3.131218 2.474874 2.474874 
C 3.131218 1.81853 3.5 0.928211 3.5 0 
C 3.5 -0.928211 3.131218 -1.81853 2.474874 -2.474874 
C 1.81853 -3.131218 0.928211 -3.5 0 -3.5 
C -0.928211 -3.5 -1.81853 -3.131218 -2.474874 -2.474874 
C -3.131218 -1.81853 -3.5 -0.928211 -3.5 0 
C -3.5 0.928211 -3.131218 1.81853 -2.474874 2.474874 
C -1.81853 3.131218 -0.928211 3.5 0 3.5 
z
" id="m3fd1eda00d" style="stroke:#000000;"/>
    </defs>
    <g clip-path="url(#p9ff11cc846)">
     <use style="stroke:#000000;" x="272.720997" xlink:href="#m3fd1eda00d" y="137.436795"/>
    </g>
   </g>
   <g id="line2d_64">
    <path clip-path="url(#p9ff11cc846)" d="M 323.184657 272.587771 
L 323.141589 272.087048 
L 322.889241 271.761383 
L 322.326517 271.479229 
L 321.309247 271.295725 
L 319.663961 271.267876 
L 316.865361 271.478713 
L 311.063076 272.196734 
L 301.468932 273.364801 
L 294.911457 273.954233 
L 288.321195 274.325168 
L 281.989815 274.458177 
L 275.307189 274.355219 
L 269.261701 274.045473 
L 263.123299 273.521128 
L 256.985303 272.787303 
L 250.940216 271.8627 
L 244.254945 270.6119 
L 237.91222 269.210905 
L 230.591335 267.3499 
L 222.829336 265.126102 
L 204.313256 259.648217 
L 202.124386 259.324523 
L 200.864133 259.352711 
L 200.111659 259.591993 
L 199.72497 259.95867 
L 199.585289 260.378962 
L 199.638953 261.021342 
L 199.93824 261.81404 
L 200.606482 262.927293 
L 201.807716 264.443302 
L 203.500012 266.209451 
L 205.713081 268.209109 
L 208.479227 270.416918 
L 211.830467 272.796398 
L 215.264666 274.980405 
L 219.180636 277.215027 
L 223.581766 279.448402 
L 227.733601 281.316388 
L 232.219927 283.097925 
L 237.015364 284.749809 
L 242.083751 286.229307 
L 246.482426 287.301745 
L 251.006029 288.206763 
L 255.618426 288.928124 
L 260.280712 289.45425 
L 264.95251 289.778813 
L 269.593371 289.901004 
L 274.164165 289.825455 
L 278.628325 289.561832 
L 283.79842 289.017223 
L 288.718994 288.252838 
L 293.351203 287.304185 
L 297.666156 286.209237 
L 302.273682 284.797976 
L 306.406038 283.298088 
L 310.541075 281.543554 
L 314.056227 279.811839 
L 317.290495 277.961389 
L 319.791388 276.274774 
L 321.590133 274.798083 
L 322.621964 273.687385 
L 323.099547 272.883099 
L 323.184657 272.587771 
L 323.184657 272.587771 
" style="fill:none;stroke:#000000;stroke-dasharray:1,1.65;stroke-dashoffset:0;"/>
   </g>
   <g id="line2d_65">
    <path clip-path="url(#p9ff11cc846)" d="M 165.103351 235.480925 
L 164.727103 235.672297 
L 164.104965 235.700331 
L 163.296472 235.504459 
L 162.118191 234.984512 
L 160.464214 233.989137 
L 158.488793 232.540833 
L 156.20413 230.608317 
L 153.63039 228.156525 
L 150.798375 225.149159 
L 147.752271 221.552468 
L 144.957972 217.901191 
L 142.096035 213.76988 
L 139.634495 209.848858 
L 137.209897 205.588649 
L 134.867584 201.010486 
L 132.653646 196.146477 
L 130.61241 191.0397 
L 129.072234 186.636707 
L 127.69914 182.137166 
L 126.508156 177.579241 
L 125.509328 173.002703 
L 124.707396 168.447527 
L 124.003855 163.063987 
L 123.572539 157.829204 
L 123.394503 152.798017 
L 123.444154 148.016291 
L 123.691487 143.520261 
L 124.186816 138.671182 
L 124.855625 134.27469 
L 125.769369 129.82193 
L 126.779178 125.982968 
L 127.959976 122.387975 
L 129.126031 119.538645 
L 130.228136 117.409488 
L 131.125481 116.101661 
L 131.833306 115.396948 
L 132.377019 115.113793 
L 132.783983 115.101866 
L 133.148724 115.292724 
L 133.531632 115.78943 
L 133.906448 116.739785 
L 134.249337 118.320524 
L 134.574863 121.052883 
L 134.925325 126.330331 
L 135.706093 138.759264 
L 136.357123 145.566626 
L 137.218949 152.325194 
L 138.253264 158.743111 
L 139.567077 165.438939 
L 140.951101 171.428211 
L 142.543573 177.444023 
L 144.587545 184.233536 
L 146.817653 190.807841 
L 149.164975 197.055558 
L 151.851312 203.587163 
L 155.050597 210.744868 
L 158.978668 218.941499 
L 163.808896 229.00339 
L 164.925169 231.817719 
L 165.394907 233.537796 
L 165.478148 234.527446 
L 165.350703 235.138208 
L 165.103351 235.480925 
L 165.103351 235.480925 
" style="fill:none;stroke:#000000;stroke-dasharray:1,1.65;stroke-dashoffset:0;"/>
   </g>
   <g id="line2d_66">
    <path clip-path="url(#p9ff11cc846)" d="M 261.785367 129.766577 
L 262.165337 129.391577 
L 262.777908 129.120028 
L 263.665933 128.999432 
L 264.864353 129.081578 
L 266.39383 129.419899 
L 268.253122 130.064987 
L 270.410856 131.05773 
L 272.656989 132.331955 
L 275.030625 133.939756 
L 277.277214 135.735584 
L 279.289727 137.631499 
L 280.976676 139.532304 
L 282.202608 141.239882 
L 282.994693 142.700379 
L 283.40284 143.890697 
L 283.488886 144.812077 
L 283.341913 145.434279 
L 283.036907 145.864174 
L 282.573916 146.158221 
L 281.890596 146.320075 
L 280.950953 146.301401 
L 279.725987 146.053695 
L 278.082388 145.485529 
L 275.985703 144.505429 
L 273.589917 143.132578 
L 270.992685 141.392594 
L 268.341777 139.351149 
L 265.943822 137.222391 
L 264.043248 135.236924 
L 262.749482 133.577374 
L 261.97935 132.260455 
L 261.602223 131.193458 
L 261.552189 130.425887 
L 261.730144 129.855676 
L 261.785367 129.766577 
L 261.785367 129.766577 
" style="fill:none;stroke:#000000;stroke-dasharray:1,1.65;stroke-dashoffset:0;"/>
   </g>
   <g id="line2d_67">
    <path clip-path="url(#p9ff11cc846)" d="M 236.16 41.472 
" style="fill:none;stroke:#000000;stroke-dasharray:1,1.65;stroke-dashoffset:0;"/>
   </g>
   <g id="patch_3">
    <path d="M 236.16 307.584 
C 271.446864 307.584 305.293219 293.56438 330.2448 268.6128 
C 355.19638 243.661219 369.216 209.814864 369.216 174.528 
C 369.216 139.241136 355.19638 105.394781 330.2448 80.4432 
C 305.293219 55.49162 271.446864 41.472 236.16 41.472 
C 200.873136 41.472 167.026781 55.49162 142.0752 80.4432 
C 117.12362 105.394781 103.104 139.241136 103.104 174.528 
C 103.104 209.814864 117.12362 243.661219 142.0752 268.6128 
C 167.026781 293.56438 200.873136 307.584 236.16 307.584 
z
" style="fill:none;stroke:#000000;stroke-linecap:square;stroke-linejoin:miter;stroke-width:0.8;"/>
   </g>
   <g id="legend_1">
    <g id="patch_4">
     <path d="M 313.495876 340.095714 
L 405.034476 340.095714 
Q 406.422476 340.095714 406.422476 338.707714 
L 406.422476 298.640058 
Q 406.422476 297.252058 405.034476 297.252058 
L 313.495876 297.252058 
Q 312.107876 297.252058 312.107876 298.640058 
L 312.107876 338.707714 
Q 312.107876 340.095714 313.495876 340.095714 
z
" style="fill:#ffffff;opacity:0.8;stroke:#cccccc;stroke-linejoin:miter;"/>
    </g>
    <g id="line2d_68"/>
    <g id="line2d_69">
     <g>
      <use style="stroke:#000000;stroke-linejoin:miter;" x="321.823876" xlink:href="#mcfde1eddfe" y="302.872373"/>
     </g>
    </g>
    <g id="text_9">
     <!-- $k_1 = 1.042\pm0.008$ -->
     <defs>
      <path d="M 18.3125 75.984375 
L 27.296875 75.984375 
L 18.703125 31.6875 
L 49.515625 54.6875 
L 61.1875 54.6875 
L 26.8125 28.515625 
L 51.90625 0 
L 41.015625 0 
L 17.671875 26.703125 
L 12.5 0 
L 3.515625 0 
z
" id="DejaVuSans-Oblique-6b"/>
      <path d="M 10.59375 45.40625 
L 73.1875 45.40625 
L 73.1875 37.203125 
L 10.59375 37.203125 
z
M 10.59375 25.484375 
L 73.1875 25.484375 
L 73.1875 17.1875 
L 10.59375 17.1875 
z
" id="DejaVuSans-3d"/>
      <path d="M 10.6875 12.40625 
L 21 12.40625 
L 21 0 
L 10.6875 0 
z
" id="DejaVuSans-2e"/>
      <path d="M 46 62.703125 
L 46 43.796875 
L 73.1875 43.796875 
L 73.1875 35.5 
L 46 35.5 
L 46 16.609375 
L 37.796875 16.609375 
L 37.796875 35.5 
L 10.59375 35.5 
L 10.59375 43.796875 
L 37.796875 43.796875 
L 37.796875 62.703125 
z
M 10.59375 8.296875 
L 73.1875 8.296875 
L 73.1875 0 
L 10.59375 0 
z
" id="DejaVuSans-b1"/>
     </defs>
     <g transform="translate(334.315876 305.301373)scale(0.0694 -0.0694)">
      <use transform="translate(0 0.015625)" xlink:href="#DejaVuSans-Oblique-6b"/>
      <use transform="translate(57.910156 -16.390625)scale(0.7)" xlink:href="#DejaVuSans-31"/>
      <use transform="translate(124.663086 0.015625)" xlink:href="#DejaVuSans-3d"/>
      <use transform="translate(227.93457 0.015625)" xlink:href="#DejaVuSans-31"/>
      <use transform="translate(291.557617 0.015625)" xlink:href="#DejaVuSans-2e"/>
      <use transform="translate(323.344727 0.015625)" xlink:href="#DejaVuSans-30"/>
      <use transform="translate(386.967773 0.015625)" xlink:href="#DejaVuSans-34"/>
      <use transform="translate(450.59082 0.015625)" xlink:href="#DejaVuSans-32"/>
      <use transform="translate(533.696289 0.015625)" xlink:href="#DejaVuSans-b1"/>
      <use transform="translate(636.967773 0.015625)" xlink:href="#DejaVuSans-30"/>
      <use transform="translate(700.59082 0.015625)" xlink:href="#DejaVuSans-2e"/>
      <use transform="translate(732.37793 0.015625)" xlink:href="#DejaVuSans-30"/>
      <use transform="translate(796.000977 0.015625)" xlink:href="#DejaVuSans-30"/>
      <use transform="translate(859.624023 0.015625)" xlink:href="#DejaVuSans-38"/>
     </g>
    </g>
    <g id="line2d_70"/>
    <g id="line2d_71">
     <g>
      <use style="stroke:#000000;stroke-linejoin:miter;" x="321.823876" xlink:href="#mf0b51097a8" y="313.058992"/>
     </g>
    </g>
    <g id="text_10">
     <!-- $k_2 = 1.034\pm0.006$ -->
     <defs>
      <path d="M 33.015625 40.375 
Q 26.375 40.375 22.484375 35.828125 
Q 18.609375 31.296875 18.609375 23.390625 
Q 18.609375 15.53125 22.484375 10.953125 
Q 26.375 6.390625 33.015625 6.390625 
Q 39.65625 6.390625 43.53125 10.953125 
Q 47.40625 15.53125 47.40625 23.390625 
Q 47.40625 31.296875 43.53125 35.828125 
Q 39.65625 40.375 33.015625 40.375 
z
M 52.59375 71.296875 
L 52.59375 62.3125 
Q 48.875 64.0625 45.09375 64.984375 
Q 41.3125 65.921875 37.59375 65.921875 
Q 27.828125 65.921875 22.671875 59.328125 
Q 17.53125 52.734375 16.796875 39.40625 
Q 19.671875 43.65625 24.015625 45.921875 
Q 28.375 48.1875 33.59375 48.1875 
Q 44.578125 48.1875 50.953125 41.515625 
Q 57.328125 34.859375 57.328125 23.390625 
Q 57.328125 12.15625 50.6875 5.359375 
Q 44.046875 -1.421875 33.015625 -1.421875 
Q 20.359375 -1.421875 13.671875 8.265625 
Q 6.984375 17.96875 6.984375 36.375 
Q 6.984375 53.65625 15.1875 63.9375 
Q 23.390625 74.21875 37.203125 74.21875 
Q 40.921875 74.21875 44.703125 73.484375 
Q 48.484375 72.75 52.59375 71.296875 
z
" id="DejaVuSans-36"/>
     </defs>
     <g transform="translate(334.315876 315.487992)scale(0.0694 -0.0694)">
      <use transform="translate(0 0.015625)" xlink:href="#DejaVuSans-Oblique-6b"/>
      <use transform="translate(57.910156 -16.390625)scale(0.7)" xlink:href="#DejaVuSans-32"/>
      <use transform="translate(124.663086 0.015625)" xlink:href="#DejaVuSans-3d"/>
      <use transform="translate(227.93457 0.015625)" xlink:href="#DejaVuSans-31"/>
      <use transform="translate(291.557617 0.015625)" xlink:href="#DejaVuSans-2e"/>
      <use transform="translate(323.344727 0.015625)" xlink:href="#DejaVuSans-30"/>
      <use transform="translate(386.967773 0.015625)" xlink:href="#DejaVuSans-33"/>
      <use transform="translate(450.59082 0.015625)" xlink:href="#DejaVuSans-34"/>
      <use transform="translate(533.696289 0.015625)" xlink:href="#DejaVuSans-b1"/>
      <use transform="translate(636.967773 0.015625)" xlink:href="#DejaVuSans-30"/>
      <use transform="translate(700.59082 0.015625)" xlink:href="#DejaVuSans-2e"/>
      <use transform="translate(732.37793 0.015625)" xlink:href="#DejaVuSans-30"/>
      <use transform="translate(796.000977 0.015625)" xlink:href="#DejaVuSans-30"/>
      <use transform="translate(859.624023 0.015625)" xlink:href="#DejaVuSans-36"/>
     </g>
    </g>
    <g id="line2d_72"/>
    <g id="line2d_73">
     <g>
      <use style="stroke:#000000;" x="321.823876" xlink:href="#m3fd1eda00d" y="323.245611"/>
     </g>
    </g>
    <g id="text_11">
     <!-- $k_3 = 0.924\pm0.013$ -->
     <g transform="translate(334.315876 325.674611)scale(0.0694 -0.0694)">
      <use transform="translate(0 0.015625)" xlink:href="#DejaVuSans-Oblique-6b"/>
      <use transform="translate(57.910156 -16.390625)scale(0.7)" xlink:href="#DejaVuSans-33"/>
      <use transform="translate(124.663086 0.015625)" xlink:href="#DejaVuSans-3d"/>
      <use transform="translate(227.93457 0.015625)" xlink:href="#DejaVuSans-30"/>
      <use transform="translate(291.557617 0.015625)" xlink:href="#DejaVuSans-2e"/>
      <use transform="translate(323.344727 0.015625)" xlink:href="#DejaVuSans-39"/>
      <use transform="translate(386.952148 0.015625)" xlink:href="#DejaVuSans-32"/>
      <use transform="translate(450.575195 0.015625)" xlink:href="#DejaVuSans-34"/>
      <use transform="translate(533.680664 0.015625)" xlink:href="#DejaVuSans-b1"/>
      <use transform="translate(636.952148 0.015625)" xlink:href="#DejaVuSans-30"/>
      <use transform="translate(700.575195 0.015625)" xlink:href="#DejaVuSans-2e"/>
      <use transform="translate(732.362305 0.015625)" xlink:href="#DejaVuSans-30"/>
      <use transform="translate(795.985352 0.015625)" xlink:href="#DejaVuSans-31"/>
      <use transform="translate(859.608398 0.015625)" xlink:href="#DejaVuSans-33"/>
     </g>
    </g>
    <g id="line2d_74">
     <path d="M 314.883876 333.433314 
L 328.763876 333.433314 
" style="fill:none;stroke:#000000;stroke-dasharray:1,1.65;stroke-dashoffset:0;"/>
    </g>
    <g id="line2d_75"/>
    <g id="text_12">
     <!-- $95.0\%$ conf. regions -->
     <defs>
      <path d="M 72.703125 32.078125 
Q 68.453125 32.078125 66.03125 28.46875 
Q 63.625 24.859375 63.625 18.40625 
Q 63.625 12.0625 66.03125 8.421875 
Q 68.453125 4.78125 72.703125 4.78125 
Q 76.859375 4.78125 79.265625 8.421875 
Q 81.6875 12.0625 81.6875 18.40625 
Q 81.6875 24.8125 79.265625 28.4375 
Q 76.859375 32.078125 72.703125 32.078125 
z
M 72.703125 38.28125 
Q 80.421875 38.28125 84.953125 32.90625 
Q 89.5 27.546875 89.5 18.40625 
Q 89.5 9.28125 84.9375 3.921875 
Q 80.375 -1.421875 72.703125 -1.421875 
Q 64.890625 -1.421875 60.34375 3.921875 
Q 55.8125 9.28125 55.8125 18.40625 
Q 55.8125 27.59375 60.375 32.9375 
Q 64.9375 38.28125 72.703125 38.28125 
z
M 22.3125 68.015625 
Q 18.109375 68.015625 15.6875 64.375 
Q 13.28125 60.75 13.28125 54.390625 
Q 13.28125 47.953125 15.671875 44.328125 
Q 18.0625 40.71875 22.3125 40.71875 
Q 26.5625 40.71875 28.96875 44.328125 
Q 31.390625 47.953125 31.390625 54.390625 
Q 31.390625 60.6875 28.953125 64.34375 
Q 26.515625 68.015625 22.3125 68.015625 
z
M 66.40625 74.21875 
L 74.21875 74.21875 
L 28.609375 -1.421875 
L 20.796875 -1.421875 
z
M 22.3125 74.21875 
Q 30.03125 74.21875 34.609375 68.875 
Q 39.203125 63.53125 39.203125 54.390625 
Q 39.203125 45.171875 34.640625 39.84375 
Q 30.078125 34.515625 22.3125 34.515625 
Q 14.546875 34.515625 10.03125 39.859375 
Q 5.515625 45.21875 5.515625 54.390625 
Q 5.515625 63.484375 10.046875 68.84375 
Q 14.59375 74.21875 22.3125 74.21875 
z
" id="DejaVuSans-25"/>
      <path id="DejaVuSans-20"/>
      <path d="M 48.78125 52.59375 
L 48.78125 44.1875 
Q 44.96875 46.296875 41.140625 47.34375 
Q 37.3125 48.390625 33.40625 48.390625 
Q 24.65625 48.390625 19.8125 42.84375 
Q 14.984375 37.3125 14.984375 27.296875 
Q 14.984375 17.28125 19.8125 11.734375 
Q 24.65625 6.203125 33.40625 6.203125 
Q 37.3125 6.203125 41.140625 7.25 
Q 44.96875 8.296875 48.78125 10.40625 
L 48.78125 2.09375 
Q 45.015625 0.34375 40.984375 -0.53125 
Q 36.96875 -1.421875 32.421875 -1.421875 
Q 20.0625 -1.421875 12.78125 6.34375 
Q 5.515625 14.109375 5.515625 27.296875 
Q 5.515625 40.671875 12.859375 48.328125 
Q 20.21875 56 33.015625 56 
Q 37.15625 56 41.109375 55.140625 
Q 45.0625 54.296875 48.78125 52.59375 
z
" id="DejaVuSans-63"/>
      <path d="M 30.609375 48.390625 
Q 23.390625 48.390625 19.1875 42.75 
Q 14.984375 37.109375 14.984375 27.296875 
Q 14.984375 17.484375 19.15625 11.84375 
Q 23.34375 6.203125 30.609375 6.203125 
Q 37.796875 6.203125 41.984375 11.859375 
Q 46.1875 17.53125 46.1875 27.296875 
Q 46.1875 37.015625 41.984375 42.703125 
Q 37.796875 48.390625 30.609375 48.390625 
z
M 30.609375 56 
Q 42.328125 56 49.015625 48.375 
Q 55.71875 40.765625 55.71875 27.296875 
Q 55.71875 13.875 49.015625 6.21875 
Q 42.328125 -1.421875 30.609375 -1.421875 
Q 18.84375 -1.421875 12.171875 6.21875 
Q 5.515625 13.875 5.515625 27.296875 
Q 5.515625 40.765625 12.171875 48.375 
Q 18.84375 56 30.609375 56 
z
" id="DejaVuSans-6f"/>
      <path d="M 54.890625 33.015625 
L 54.890625 0 
L 45.90625 0 
L 45.90625 32.71875 
Q 45.90625 40.484375 42.875 44.328125 
Q 39.84375 48.1875 33.796875 48.1875 
Q 26.515625 48.1875 22.3125 43.546875 
Q 18.109375 38.921875 18.109375 30.90625 
L 18.109375 0 
L 9.078125 0 
L 9.078125 54.6875 
L 18.109375 54.6875 
L 18.109375 46.1875 
Q 21.34375 51.125 25.703125 53.5625 
Q 30.078125 56 35.796875 56 
Q 45.21875 56 50.046875 50.171875 
Q 54.890625 44.34375 54.890625 33.015625 
z
" id="DejaVuSans-6e"/>
      <path d="M 37.109375 75.984375 
L 37.109375 68.5 
L 28.515625 68.5 
Q 23.6875 68.5 21.796875 66.546875 
Q 19.921875 64.59375 19.921875 59.515625 
L 19.921875 54.6875 
L 34.71875 54.6875 
L 34.71875 47.703125 
L 19.921875 47.703125 
L 19.921875 0 
L 10.890625 0 
L 10.890625 47.703125 
L 2.296875 47.703125 
L 2.296875 54.6875 
L 10.890625 54.6875 
L 10.890625 58.5 
Q 10.890625 67.625 15.140625 71.796875 
Q 19.390625 75.984375 28.609375 75.984375 
z
" id="DejaVuSans-66"/>
      <path d="M 41.109375 46.296875 
Q 39.59375 47.171875 37.8125 47.578125 
Q 36.03125 48 33.890625 48 
Q 26.265625 48 22.1875 43.046875 
Q 18.109375 38.09375 18.109375 28.8125 
L 18.109375 0 
L 9.078125 0 
L 9.078125 54.6875 
L 18.109375 54.6875 
L 18.109375 46.1875 
Q 20.953125 51.171875 25.484375 53.578125 
Q 30.03125 56 36.53125 56 
Q 37.453125 56 38.578125 55.875 
Q 39.703125 55.765625 41.0625 55.515625 
z
" id="DejaVuSans-72"/>
      <path d="M 56.203125 29.59375 
L 56.203125 25.203125 
L 14.890625 25.203125 
Q 15.484375 15.921875 20.484375 11.0625 
Q 25.484375 6.203125 34.421875 6.203125 
Q 39.59375 6.203125 44.453125 7.46875 
Q 49.3125 8.734375 54.109375 11.28125 
L 54.109375 2.78125 
Q 49.265625 0.734375 44.1875 -0.34375 
Q 39.109375 -1.421875 33.890625 -1.421875 
Q 20.796875 -1.421875 13.15625 6.1875 
Q 5.515625 13.8125 5.515625 26.8125 
Q 5.515625 40.234375 12.765625 48.109375 
Q 20.015625 56 32.328125 56 
Q 43.359375 56 49.78125 48.890625 
Q 56.203125 41.796875 56.203125 29.59375 
z
M 47.21875 32.234375 
Q 47.125 39.59375 43.09375 43.984375 
Q 39.0625 48.390625 32.421875 48.390625 
Q 24.90625 48.390625 20.390625 44.140625 
Q 15.875 39.890625 15.1875 32.171875 
z
" id="DejaVuSans-65"/>
      <path d="M 45.40625 27.984375 
Q 45.40625 37.75 41.375 43.109375 
Q 37.359375 48.484375 30.078125 48.484375 
Q 22.859375 48.484375 18.828125 43.109375 
Q 14.796875 37.75 14.796875 27.984375 
Q 14.796875 18.265625 18.828125 12.890625 
Q 22.859375 7.515625 30.078125 7.515625 
Q 37.359375 7.515625 41.375 12.890625 
Q 45.40625 18.265625 45.40625 27.984375 
z
M 54.390625 6.78125 
Q 54.390625 -7.171875 48.1875 -13.984375 
Q 42 -20.796875 29.203125 -20.796875 
Q 24.46875 -20.796875 20.265625 -20.09375 
Q 16.0625 -19.390625 12.109375 -17.921875 
L 12.109375 -9.1875 
Q 16.0625 -11.328125 19.921875 -12.34375 
Q 23.78125 -13.375 27.78125 -13.375 
Q 36.625 -13.375 41.015625 -8.765625 
Q 45.40625 -4.15625 45.40625 5.171875 
L 45.40625 9.625 
Q 42.625 4.78125 38.28125 2.390625 
Q 33.9375 0 27.875 0 
Q 17.828125 0 11.671875 7.65625 
Q 5.515625 15.328125 5.515625 27.984375 
Q 5.515625 40.671875 11.671875 48.328125 
Q 17.828125 56 27.875 56 
Q 33.9375 56 38.28125 53.609375 
Q 42.625 51.21875 45.40625 46.390625 
L 45.40625 54.6875 
L 54.390625 54.6875 
z
" id="DejaVuSans-67"/>
      <path d="M 9.421875 54.6875 
L 18.40625 54.6875 
L 18.40625 0 
L 9.421875 0 
z
M 9.421875 75.984375 
L 18.40625 75.984375 
L 18.40625 64.59375 
L 9.421875 64.59375 
z
" id="DejaVuSans-69"/>
      <path d="M 44.28125 53.078125 
L 44.28125 44.578125 
Q 40.484375 46.53125 36.375 47.5 
Q 32.28125 48.484375 27.875 48.484375 
Q 21.1875 48.484375 17.84375 46.4375 
Q 14.5 44.390625 14.5 40.28125 
Q 14.5 37.15625 16.890625 35.375 
Q 19.28125 33.59375 26.515625 31.984375 
L 29.59375 31.296875 
Q 39.15625 29.25 43.1875 25.515625 
Q 47.21875 21.78125 47.21875 15.09375 
Q 47.21875 7.46875 41.1875 3.015625 
Q 35.15625 -1.421875 24.609375 -1.421875 
Q 20.21875 -1.421875 15.453125 -0.5625 
Q 10.6875 0.296875 5.421875 2 
L 5.421875 11.28125 
Q 10.40625 8.6875 15.234375 7.390625 
Q 20.0625 6.109375 24.8125 6.109375 
Q 31.15625 6.109375 34.5625 8.28125 
Q 37.984375 10.453125 37.984375 14.40625 
Q 37.984375 18.0625 35.515625 20.015625 
Q 33.0625 21.96875 24.703125 23.78125 
L 21.578125 24.515625 
Q 13.234375 26.265625 9.515625 29.90625 
Q 5.8125 33.546875 5.8125 39.890625 
Q 5.8125 47.609375 11.28125 51.796875 
Q 16.75 56 26.8125 56 
Q 31.78125 56 36.171875 55.265625 
Q 40.578125 54.546875 44.28125 53.078125 
z
" id="DejaVuSans-73"/>
     </defs>
     <g transform="translate(334.315876 335.862314)scale(0.0694 -0.0694)">
      <use transform="translate(0 0.015625)" xlink:href="#DejaVuSans-39"/>
      <use transform="translate(63.623047 0.015625)" xlink:href="#DejaVuSans-35"/>
      <use transform="translate(127.246094 0.015625)" xlink:href="#DejaVuSans-2e"/>
      <use transform="translate(159.033203 0.015625)" xlink:href="#DejaVuSans-30"/>
      <use transform="translate(222.65625 0.015625)" xlink:href="#DejaVuSans-25"/>
      <use transform="translate(317.675781 0.015625)" xlink:href="#DejaVuSans-20"/>
      <use transform="translate(349.462891 0.015625)" xlink:href="#DejaVuSans-63"/>
      <use transform="translate(404.443359 0.015625)" xlink:href="#DejaVuSans-6f"/>
      <use transform="translate(465.625 0.015625)" xlink:href="#DejaVuSans-6e"/>
      <use transform="translate(529.003906 0.015625)" xlink:href="#DejaVuSans-66"/>
      <use transform="translate(564.208984 0.015625)" xlink:href="#DejaVuSans-2e"/>
      <use transform="translate(595.996094 0.015625)" xlink:href="#DejaVuSans-20"/>
      <use transform="translate(627.783203 0.015625)" xlink:href="#DejaVuSans-72"/>
      <use transform="translate(668.896484 0.015625)" xlink:href="#DejaVuSans-65"/>
      <use transform="translate(730.419922 0.015625)" xlink:href="#DejaVuSans-67"/>
      <use transform="translate(793.896484 0.015625)" xlink:href="#DejaVuSans-69"/>
      <use transform="translate(821.679688 0.015625)" xlink:href="#DejaVuSans-6f"/>
      <use transform="translate(882.861328 0.015625)" xlink:href="#DejaVuSans-6e"/>
      <use transform="translate(946.240234 0.015625)" xlink:href="#DejaVuSans-73"/>
     </g>
    </g>
   </g>
  </g>
 </g>
 <defs>
  <clipPath id="p9ff11cc846">
   <path d="M 236.16 307.584 
C 271.446864 307.584 305.293219 293.56438 330.2448 268.6128 
C 355.19638 243.661219 369.216 209.814864 369.216 174.528 
C 369.216 139.241136 355.19638 105.394781 330.2448 80.4432 
C 305.293219 55.49162 271.446864 41.472 236.16 41.472 
C 200.873136 41.472 167.026781 55.49162 142.0752 80.4432 
C 117.12362 105.394781 103.104 139.241136 103.104 174.528 
C 103.104 209.814864 117.12362 243.661219 142.0752 268.6128 
C 167.026781 293.56438 200.873136 307.584 236.16 307.584 
z
"/>
  </clipPath>
 </defs>
</svg>
