<?xml version="1.0" encoding="utf-8" standalone="no"?>
<!DOCTYPE svg PUBLIC "-//W3C//DTD SVG 1.1//EN"
  "http://www.w3.org/Graphics/SVG/1.1/DTD/svg11.dtd">
<!-- Created with matplotlib (http://matplotlib.org/) -->
<svg height="345.6pt" version="1.1" viewBox="0 0 460.8 345.6" width="460.8pt" xmlns="http://www.w3.org/2000/svg" xmlns:xlink="http://www.w3.org/1999/xlink">
 <defs>
  <style type="text/css">
*{stroke-linecap:butt;stroke-linejoin:round;}
  </style>
 </defs>
 <g id="figure_1">
  <g id="patch_1">
   <path d="M 0 345.6 
L 460.8 345.6 
L 460.8 0 
L 0 0 
z
" style="fill:#ffffff;"/>
  </g>
  <g id="axes_1">
   <g id="patch_2">
    <path d="M 57.6 307.584 
L 138.763636 307.584 
L 138.763636 41.472 
L 57.6 41.472 
z
" style="fill:#ffffff;"/>
   </g>
   <g id="matplotlib.axis_1">
    <g id="xtick_1">
     <g id="line2d_1">
      <path clip-path="url(#p03090c7874)" d="M 70.599029 307.584 
L 70.599029 41.472 
" style="fill:none;stroke:#b0b0b0;stroke-dasharray:1.85,0.8;stroke-dashoffset:0;stroke-width:0.5;"/>
     </g>
     <g id="line2d_2">
      <defs>
       <path d="M 0 0 
L 0 3.5 
" id="m717907cae6" style="stroke:#000000;stroke-width:0.8;"/>
      </defs>
      <g>
       <use style="stroke:#000000;stroke-width:0.8;" x="70.599029" xlink:href="#m717907cae6" y="307.584"/>
      </g>
     </g>
     <g id="text_1">
      <!-- −0.5 -->
      <defs>
       <path d="M 10.59375 35.5 
L 73.1875 35.5 
L 73.1875 27.203125 
L 10.59375 27.203125 
z
" id="DejaVuSans-2212"/>
       <path d="M 31.78125 66.40625 
Q 24.171875 66.40625 20.328125 58.90625 
Q 16.5 51.421875 16.5 36.375 
Q 16.5 21.390625 20.328125 13.890625 
Q 24.171875 6.390625 31.78125 6.390625 
Q 39.453125 6.390625 43.28125 13.890625 
Q 47.125 21.390625 47.125 36.375 
Q 47.125 51.421875 43.28125 58.90625 
Q 39.453125 66.40625 31.78125 66.40625 
z
M 31.78125 74.21875 
Q 44.046875 74.21875 50.515625 64.515625 
Q 56.984375 54.828125 56.984375 36.375 
Q 56.984375 17.96875 50.515625 8.265625 
Q 44.046875 -1.421875 31.78125 -1.421875 
Q 19.53125 -1.421875 13.0625 8.265625 
Q 6.59375 17.96875 6.59375 36.375 
Q 6.59375 54.828125 13.0625 64.515625 
Q 19.53125 74.21875 31.78125 74.21875 
z
" id="DejaVuSans-30"/>
       <path d="M 10.6875 12.40625 
L 21 12.40625 
L 21 0 
L 10.6875 0 
z
" id="DejaVuSans-2e"/>
       <path d="M 10.796875 72.90625 
L 49.515625 72.90625 
L 49.515625 64.59375 
L 19.828125 64.59375 
L 19.828125 46.734375 
Q 21.96875 47.46875 24.109375 47.828125 
Q 26.265625 48.1875 28.421875 48.1875 
Q 40.625 48.1875 47.75 41.5 
Q 54.890625 34.8125 54.890625 23.390625 
Q 54.890625 11.625 47.5625 5.09375 
Q 40.234375 -1.421875 26.90625 -1.421875 
Q 22.3125 -1.421875 17.546875 -0.640625 
Q 12.796875 0.140625 7.71875 1.703125 
L 7.71875 11.625 
Q 12.109375 9.234375 16.796875 8.0625 
Q 21.484375 6.890625 26.703125 6.890625 
Q 35.15625 6.890625 40.078125 11.328125 
Q 45.015625 15.765625 45.015625 23.390625 
Q 45.015625 31 40.078125 35.4375 
Q 35.15625 39.890625 26.703125 39.890625 
Q 22.75 39.890625 18.8125 39.015625 
Q 14.890625 38.140625 10.796875 36.28125 
z
" id="DejaVuSans-35"/>
      </defs>
      <g transform="translate(62.100045 319.902906)scale(0.07 -0.07)">
       <use xlink:href="#DejaVuSans-2212"/>
       <use x="83.789062" xlink:href="#DejaVuSans-30"/>
       <use x="147.412109" xlink:href="#DejaVuSans-2e"/>
       <use x="179.199219" xlink:href="#DejaVuSans-35"/>
      </g>
     </g>
    </g>
    <g id="xtick_2">
     <g id="line2d_3">
      <path clip-path="url(#p03090c7874)" d="M 98.181789 307.584 
L 98.181789 41.472 
" style="fill:none;stroke:#b0b0b0;stroke-dasharray:1.85,0.8;stroke-dashoffset:0;stroke-width:0.5;"/>
     </g>
     <g id="line2d_4">
      <g>
       <use style="stroke:#000000;stroke-width:0.8;" x="98.181789" xlink:href="#m717907cae6" y="307.584"/>
      </g>
     </g>
     <g id="text_2">
      <!-- 0.0 -->
      <g transform="translate(92.615696 319.902906)scale(0.07 -0.07)">
       <use xlink:href="#DejaVuSans-30"/>
       <use x="63.623047" xlink:href="#DejaVuSans-2e"/>
       <use x="95.410156" xlink:href="#DejaVuSans-30"/>
      </g>
     </g>
    </g>
    <g id="xtick_3">
     <g id="line2d_5">
      <path clip-path="url(#p03090c7874)" d="M 125.76455 307.584 
L 125.76455 41.472 
" style="fill:none;stroke:#b0b0b0;stroke-dasharray:1.85,0.8;stroke-dashoffset:0;stroke-width:0.5;"/>
     </g>
     <g id="line2d_6">
      <g>
       <use style="stroke:#000000;stroke-width:0.8;" x="125.76455" xlink:href="#m717907cae6" y="307.584"/>
      </g>
     </g>
     <g id="text_3">
      <!-- 0.5 -->
      <g transform="translate(120.198456 319.902906)scale(0.07 -0.07)">
       <use xlink:href="#DejaVuSans-30"/>
       <use x="63.623047" xlink:href="#DejaVuSans-2e"/>
       <use x="95.410156" xlink:href="#DejaVuSans-35"/>
      </g>
     </g>
    </g>
    <g id="text_4">
     <!-- $p_2$ -->
     <defs>
      <path d="M 49.609375 33.6875 
Q 49.609375 40.875 46.484375 44.671875 
Q 43.359375 48.484375 37.5 48.484375 
Q 33.5 48.484375 29.859375 46.4375 
Q 26.21875 44.390625 23.390625 40.484375 
Q 20.609375 36.625 18.9375 31.15625 
Q 17.28125 25.6875 17.28125 20.3125 
Q 17.28125 13.484375 20.40625 9.796875 
Q 23.53125 6.109375 29.296875 6.109375 
Q 33.546875 6.109375 37.1875 8.109375 
Q 40.828125 10.109375 43.40625 13.921875 
Q 46.1875 17.921875 47.890625 23.34375 
Q 49.609375 28.765625 49.609375 33.6875 
z
M 21.78125 46.390625 
Q 25.390625 51.125 30.296875 53.5625 
Q 35.203125 56 41.21875 56 
Q 49.609375 56 54.25 50.5 
Q 58.890625 45.015625 58.890625 35.109375 
Q 58.890625 27 56 19.65625 
Q 53.125 12.3125 47.703125 6.5 
Q 44.09375 2.640625 39.546875 0.609375 
Q 35.015625 -1.421875 29.984375 -1.421875 
Q 24.171875 -1.421875 20.21875 1 
Q 16.265625 3.421875 14.3125 8.203125 
L 8.6875 -20.796875 
L -0.296875 -20.796875 
L 14.40625 54.6875 
L 23.390625 54.6875 
z
" id="DejaVuSans-Oblique-70"/>
      <path d="M 19.1875 8.296875 
L 53.609375 8.296875 
L 53.609375 0 
L 7.328125 0 
L 7.328125 8.296875 
Q 12.9375 14.109375 22.625 23.890625 
Q 32.328125 33.6875 34.8125 36.53125 
Q 39.546875 41.84375 41.421875 45.53125 
Q 43.3125 49.21875 43.3125 52.78125 
Q 43.3125 58.59375 39.234375 62.25 
Q 35.15625 65.921875 28.609375 65.921875 
Q 23.96875 65.921875 18.8125 64.3125 
Q 13.671875 62.703125 7.8125 59.421875 
L 7.8125 69.390625 
Q 13.765625 71.78125 18.9375 73 
Q 24.125 74.21875 28.421875 74.21875 
Q 39.75 74.21875 46.484375 68.546875 
Q 53.21875 62.890625 53.21875 53.421875 
Q 53.21875 48.921875 51.53125 44.890625 
Q 49.859375 40.875 45.40625 35.40625 
Q 44.1875 33.984375 37.640625 27.21875 
Q 31.109375 20.453125 19.1875 8.296875 
z
" id="DejaVuSans-32"/>
     </defs>
     <g transform="translate(92.631818 332.936812)scale(0.1 -0.1)">
      <use xlink:href="#DejaVuSans-Oblique-70"/>
      <use transform="translate(63.476562 -16.40625)scale(0.7)" xlink:href="#DejaVuSans-32"/>
     </g>
    </g>
   </g>
   <g id="matplotlib.axis_2">
    <g id="ytick_1">
     <g id="line2d_7">
      <path clip-path="url(#p03090c7874)" d="M 57.6 284.859074 
L 138.763636 284.859074 
" style="fill:none;stroke:#b0b0b0;stroke-dasharray:1.85,0.8;stroke-dashoffset:0;stroke-width:0.5;"/>
     </g>
     <g id="line2d_8">
      <defs>
       <path d="M 0 0 
L -3.5 0 
" id="mef2674f2b1" style="stroke:#000000;stroke-width:0.8;"/>
      </defs>
      <g>
       <use style="stroke:#000000;stroke-width:0.8;" x="57.6" xlink:href="#mef2674f2b1" y="284.859074"/>
      </g>
     </g>
     <g id="text_5">
      <!-- −2 -->
      <g transform="translate(40.280469 287.518528)scale(0.07 -0.07)">
       <use xlink:href="#DejaVuSans-2212"/>
       <use x="83.789062" xlink:href="#DejaVuSans-32"/>
      </g>
     </g>
    </g>
    <g id="ytick_2">
     <g id="line2d_9">
      <path clip-path="url(#p03090c7874)" d="M 57.6 229.693554 
L 138.763636 229.693554 
" style="fill:none;stroke:#b0b0b0;stroke-dasharray:1.85,0.8;stroke-dashoffset:0;stroke-width:0.5;"/>
     </g>
     <g id="line2d_10">
      <g>
       <use style="stroke:#000000;stroke-width:0.8;" x="57.6" xlink:href="#mef2674f2b1" y="229.693554"/>
      </g>
     </g>
     <g id="text_6">
      <!-- −1 -->
      <defs>
       <path d="M 12.40625 8.296875 
L 28.515625 8.296875 
L 28.515625 63.921875 
L 10.984375 60.40625 
L 10.984375 69.390625 
L 28.421875 72.90625 
L 38.28125 72.90625 
L 38.28125 8.296875 
L 54.390625 8.296875 
L 54.390625 0 
L 12.40625 0 
z
" id="DejaVuSans-31"/>
      </defs>
      <g transform="translate(40.280469 232.353007)scale(0.07 -0.07)">
       <use xlink:href="#DejaVuSans-2212"/>
       <use x="83.789062" xlink:href="#DejaVuSans-31"/>
      </g>
     </g>
    </g>
    <g id="ytick_3">
     <g id="line2d_11">
      <path clip-path="url(#p03090c7874)" d="M 57.6 174.528033 
L 138.763636 174.528033 
" style="fill:none;stroke:#b0b0b0;stroke-dasharray:1.85,0.8;stroke-dashoffset:0;stroke-width:0.5;"/>
     </g>
     <g id="line2d_12">
      <g>
       <use style="stroke:#000000;stroke-width:0.8;" x="57.6" xlink:href="#mef2674f2b1" y="174.528033"/>
      </g>
     </g>
     <g id="text_7">
      <!-- 0 -->
      <g transform="translate(46.14625 177.187486)scale(0.07 -0.07)">
       <use xlink:href="#DejaVuSans-30"/>
      </g>
     </g>
    </g>
    <g id="ytick_4">
     <g id="line2d_13">
      <path clip-path="url(#p03090c7874)" d="M 57.6 119.362512 
L 138.763636 119.362512 
" style="fill:none;stroke:#b0b0b0;stroke-dasharray:1.85,0.8;stroke-dashoffset:0;stroke-width:0.5;"/>
     </g>
     <g id="line2d_14">
      <g>
       <use style="stroke:#000000;stroke-width:0.8;" x="57.6" xlink:href="#mef2674f2b1" y="119.362512"/>
      </g>
     </g>
     <g id="text_8">
      <!-- 1 -->
      <g transform="translate(46.14625 122.021965)scale(0.07 -0.07)">
       <use xlink:href="#DejaVuSans-31"/>
      </g>
     </g>
    </g>
    <g id="ytick_5">
     <g id="line2d_15">
      <path clip-path="url(#p03090c7874)" d="M 57.6 64.196992 
L 138.763636 64.196992 
" style="fill:none;stroke:#b0b0b0;stroke-dasharray:1.85,0.8;stroke-dashoffset:0;stroke-width:0.5;"/>
     </g>
     <g id="line2d_16">
      <g>
       <use style="stroke:#000000;stroke-width:0.8;" x="57.6" xlink:href="#mef2674f2b1" y="64.196992"/>
      </g>
     </g>
     <g id="text_9">
      <!-- 2 -->
      <g transform="translate(46.14625 66.856445)scale(0.07 -0.07)">
       <use xlink:href="#DejaVuSans-32"/>
      </g>
     </g>
    </g>
    <g id="text_10">
     <!-- $p_3$ -->
     <defs>
      <path d="M 40.578125 39.3125 
Q 47.65625 37.796875 51.625 33 
Q 55.609375 28.21875 55.609375 21.1875 
Q 55.609375 10.40625 48.1875 4.484375 
Q 40.765625 -1.421875 27.09375 -1.421875 
Q 22.515625 -1.421875 17.65625 -0.515625 
Q 12.796875 0.390625 7.625 2.203125 
L 7.625 11.71875 
Q 11.71875 9.328125 16.59375 8.109375 
Q 21.484375 6.890625 26.8125 6.890625 
Q 36.078125 6.890625 40.9375 10.546875 
Q 45.796875 14.203125 45.796875 21.1875 
Q 45.796875 27.640625 41.28125 31.265625 
Q 36.765625 34.90625 28.71875 34.90625 
L 20.21875 34.90625 
L 20.21875 43.015625 
L 29.109375 43.015625 
Q 36.375 43.015625 40.234375 45.921875 
Q 44.09375 48.828125 44.09375 54.296875 
Q 44.09375 59.90625 40.109375 62.90625 
Q 36.140625 65.921875 28.71875 65.921875 
Q 24.65625 65.921875 20.015625 65.03125 
Q 15.375 64.15625 9.8125 62.3125 
L 9.8125 71.09375 
Q 15.4375 72.65625 20.34375 73.4375 
Q 25.25 74.21875 29.59375 74.21875 
Q 40.828125 74.21875 47.359375 69.109375 
Q 53.90625 64.015625 53.90625 55.328125 
Q 53.90625 49.265625 50.4375 45.09375 
Q 46.96875 40.921875 40.578125 39.3125 
z
" id="DejaVuSans-33"/>
     </defs>
     <g transform="translate(34.180469 180.078)rotate(-90)scale(0.1 -0.1)">
      <use xlink:href="#DejaVuSans-Oblique-70"/>
      <use transform="translate(63.476562 -16.40625)scale(0.7)" xlink:href="#DejaVuSans-33"/>
     </g>
    </g>
   </g>
   <g id="line2d_17">
    <path clip-path="url(#p03090c7874)" d="M 135.07438 175.247321 
L 134.977221 174.831032 
L 134.598661 174.343344 
L 133.82009 173.787962 
L 132.512848 173.172404 
L 130.544737 172.509183 
L 127.789405 171.816952 
L 123.806789 171.066783 
L 118.755136 170.362918 
L 112.639593 169.752533 
L 106.009825 169.311999 
L 98.637184 169.046842 
L 91.246121 169.003404 
L 84.135613 169.183443 
L 77.98038 169.548838 
L 72.543655 170.09133 
L 68.288675 170.740498 
L 65.374751 171.39123 
L 63.359066 172.05092 
L 62.20463 172.626556 
L 61.565599 173.158948 
L 61.310844 173.636366 
L 61.320305 174.051233 
L 61.540061 174.468821 
L 62.060492 174.956265 
L 62.998328 175.509054 
L 64.479154 176.118777 
L 66.873839 176.835514 
L 70.168235 177.56655 
L 74.454817 178.279885 
L 79.776865 178.935427 
L 86.107355 179.485749 
L 93.3274 179.878039 
L 100.74381 180.053915 
L 108.056584 180.006264 
L 114.969912 179.737013 
L 120.839342 179.292898 
L 125.594191 178.725081 
L 129.251375 178.0809 
L 131.891849 177.401531 
L 133.507488 176.784665 
L 134.483875 176.198646 
L 134.961068 175.659507 
L 135.07438 175.247321 
L 135.07438 175.247321 
" style="fill:none;stroke:#000000;stroke-linecap:square;stroke-width:1.5;"/>
   </g>
   <g id="line2d_18">
    <path clip-path="url(#p03090c7874)" d="M 135.07438 175.247321 
L 134.977221 174.831032 
L 134.598661 174.343344 
L 133.82009 173.787962 
L 132.512848 173.172404 
L 130.544737 172.509183 
L 127.789405 171.816952 
L 123.806789 171.066783 
L 118.755136 170.362918 
L 112.639593 169.752533 
L 106.009825 169.311999 
L 98.637184 169.046842 
L 91.246121 169.003404 
L 84.135613 169.183443 
L 77.98038 169.548838 
L 72.543655 170.09133 
L 68.288675 170.740498 
L 65.374751 171.39123 
L 63.359066 172.05092 
L 62.20463 172.626556 
L 61.565599 173.158948 
L 61.310844 173.636366 
L 61.320305 174.051233 
L 61.540061 174.468821 
L 62.060492 174.956265 
L 62.998328 175.509054 
L 64.479154 176.118777 
L 66.873839 176.835514 
L 70.168235 177.56655 
L 74.454817 178.279885 
L 79.776865 178.935427 
L 86.107355 179.485749 
L 93.3274 179.878039 
L 100.74381 180.053915 
L 108.056584 180.006264 
L 114.969912 179.737013 
L 120.839342 179.292898 
L 125.594191 178.725081 
L 129.251375 178.0809 
L 131.891849 177.401531 
L 133.507488 176.784665 
L 134.483875 176.198646 
L 134.961068 175.659507 
L 135.07438 175.247321 
L 135.07438 175.247321 
" style="fill:none;stroke:#000000;stroke-linecap:square;stroke-width:1.5;"/>
   </g>
   <g id="line2d_19">
    <path clip-path="url(#p03090c7874)" d="M 135.07438 175.247321 
L 134.977221 174.831032 
L 134.598661 174.343344 
L 133.82009 173.787962 
L 132.512848 173.172404 
L 130.544737 172.509183 
L 127.789405 171.816952 
L 123.806789 171.066783 
L 118.755136 170.362918 
L 112.639593 169.752533 
L 106.009825 169.311999 
L 98.637184 169.046842 
L 91.246121 169.003404 
L 84.135613 169.183443 
L 77.98038 169.548838 
L 72.543655 170.09133 
L 68.288675 170.740498 
L 65.374751 171.39123 
L 63.359066 172.05092 
L 62.20463 172.626556 
L 61.565599 173.158948 
L 61.310844 173.636366 
L 61.320305 174.051233 
L 61.540061 174.468821 
L 62.060492 174.956265 
L 62.998328 175.509054 
L 64.479154 176.118777 
L 66.873839 176.835514 
L 70.168235 177.56655 
L 74.454817 178.279885 
L 79.776865 178.935427 
L 86.107355 179.485749 
L 93.3274 179.878039 
L 100.74381 180.053915 
L 108.056584 180.006264 
L 114.969912 179.737013 
L 120.839342 179.292898 
L 125.594191 178.725081 
L 129.251375 178.0809 
L 131.891849 177.401531 
L 133.507488 176.784665 
L 134.483875 176.198646 
L 134.961068 175.659507 
L 135.07438 175.247321 
L 135.07438 175.247321 
" style="fill:none;stroke:#000000;stroke-linecap:square;stroke-width:1.5;"/>
   </g>
   <g id="patch_3">
    <path d="M 57.6 307.584 
L 57.6 41.472 
" style="fill:none;stroke:#000000;stroke-linecap:square;stroke-linejoin:miter;stroke-width:0.8;"/>
   </g>
   <g id="patch_4">
    <path d="M 138.763636 307.584 
L 138.763636 41.472 
" style="fill:none;stroke:#000000;stroke-linecap:square;stroke-linejoin:miter;stroke-width:0.8;"/>
   </g>
   <g id="patch_5">
    <path d="M 57.6 307.584 
L 138.763636 307.584 
" style="fill:none;stroke:#000000;stroke-linecap:square;stroke-linejoin:miter;stroke-width:0.8;"/>
   </g>
   <g id="patch_6">
    <path d="M 57.6 41.472 
L 138.763636 41.472 
" style="fill:none;stroke:#000000;stroke-linecap:square;stroke-linejoin:miter;stroke-width:0.8;"/>
   </g>
   <g id="text_11">
    <!-- 95.0% confidence ellipse  -->
    <defs>
     <path d="M 10.015625 1.609375 
L 10.015625 15.09375 
Q 14.5 12.984375 18.59375 11.9375 
Q 22.703125 10.890625 26.703125 10.890625 
Q 35.109375 10.890625 39.796875 15.546875 
Q 44.484375 20.21875 45.3125 29.390625 
Q 42 26.953125 38.234375 25.734375 
Q 34.46875 24.515625 30.078125 24.515625 
Q 18.890625 24.515625 12.03125 31.03125 
Q 5.171875 37.546875 5.171875 48.1875 
Q 5.171875 59.96875 12.8125 67.046875 
Q 20.453125 74.125 33.296875 74.125 
Q 47.5625 74.125 55.375 64.5 
Q 63.1875 54.890625 63.1875 37.3125 
Q 63.1875 19.234375 54.046875 8.90625 
Q 44.921875 -1.421875 29 -1.421875 
Q 23.875 -1.421875 19.1875 -0.65625 
Q 14.5 0.09375 10.015625 1.609375 
z
M 33.203125 36.71875 
Q 38.140625 36.71875 40.625 39.90625 
Q 43.109375 43.109375 43.109375 49.515625 
Q 43.109375 55.859375 40.625 59.078125 
Q 38.140625 62.3125 33.203125 62.3125 
Q 28.265625 62.3125 25.78125 59.078125 
Q 23.296875 55.859375 23.296875 49.515625 
Q 23.296875 43.109375 25.78125 39.90625 
Q 28.265625 36.71875 33.203125 36.71875 
z
" id="DejaVuSans-Bold-39"/>
     <path d="M 10.59375 72.90625 
L 57.328125 72.90625 
L 57.328125 59.078125 
L 25.59375 59.078125 
L 25.59375 47.796875 
Q 27.734375 48.390625 29.90625 48.703125 
Q 32.078125 49.03125 34.421875 49.03125 
Q 47.75 49.03125 55.171875 42.359375 
Q 62.59375 35.6875 62.59375 23.78125 
Q 62.59375 11.96875 54.515625 5.265625 
Q 46.4375 -1.421875 32.078125 -1.421875 
Q 25.875 -1.421875 19.796875 -0.21875 
Q 13.71875 0.984375 7.71875 3.421875 
L 7.71875 18.21875 
Q 13.671875 14.796875 19.015625 13.078125 
Q 24.359375 11.375 29.109375 11.375 
Q 35.9375 11.375 39.859375 14.71875 
Q 43.796875 18.0625 43.796875 23.78125 
Q 43.796875 29.546875 39.859375 32.859375 
Q 35.9375 36.1875 29.109375 36.1875 
Q 25.046875 36.1875 20.453125 35.125 
Q 15.875 34.078125 10.59375 31.890625 
z
" id="DejaVuSans-Bold-35"/>
     <path d="M 10.203125 18.890625 
L 27.78125 18.890625 
L 27.78125 0 
L 10.203125 0 
z
" id="DejaVuSans-Bold-2e"/>
     <path d="M 46 36.53125 
Q 46 50.203125 43.4375 55.78125 
Q 40.875 61.375 34.8125 61.375 
Q 28.765625 61.375 26.171875 55.78125 
Q 23.578125 50.203125 23.578125 36.53125 
Q 23.578125 22.703125 26.171875 17.03125 
Q 28.765625 11.375 34.8125 11.375 
Q 40.828125 11.375 43.40625 17.03125 
Q 46 22.703125 46 36.53125 
z
M 64.796875 36.375 
Q 64.796875 18.265625 56.984375 8.421875 
Q 49.171875 -1.421875 34.8125 -1.421875 
Q 20.40625 -1.421875 12.59375 8.421875 
Q 4.78125 18.265625 4.78125 36.375 
Q 4.78125 54.546875 12.59375 64.375 
Q 20.40625 74.21875 34.8125 74.21875 
Q 49.171875 74.21875 56.984375 64.375 
Q 64.796875 54.546875 64.796875 36.375 
z
" id="DejaVuSans-Bold-30"/>
     <path d="M 77.484375 30.078125 
Q 74.03125 30.078125 72.125 27.078125 
Q 70.21875 24.078125 70.21875 18.5 
Q 70.21875 12.890625 72.09375 9.890625 
Q 73.96875 6.890625 77.484375 6.890625 
Q 81 6.890625 82.859375 9.890625 
Q 84.71875 12.890625 84.71875 18.5 
Q 84.71875 24.078125 82.828125 27.078125 
Q 80.953125 30.078125 77.484375 30.078125 
z
M 77.484375 38.28125 
Q 86.578125 38.28125 91.796875 33 
Q 97.015625 27.734375 97.015625 18.5 
Q 97.015625 9.28125 91.796875 3.921875 
Q 86.578125 -1.421875 77.484375 -1.421875 
Q 68.40625 -1.421875 63.15625 3.921875 
Q 57.90625 9.28125 57.90625 18.5 
Q 57.90625 27.6875 63.15625 32.984375 
Q 68.40625 38.28125 77.484375 38.28125 
z
M 32.71875 -1.421875 
L 21.921875 -1.421875 
L 67.484375 74.21875 
L 78.328125 74.21875 
z
M 22.703125 74.21875 
Q 31.78125 74.21875 36.984375 68.921875 
Q 42.1875 63.625 42.1875 54.390625 
Q 42.1875 45.171875 36.984375 39.84375 
Q 31.78125 34.515625 22.703125 34.515625 
Q 13.625 34.515625 8.421875 39.84375 
Q 3.21875 45.171875 3.21875 54.390625 
Q 3.21875 63.625 8.421875 68.921875 
Q 13.625 74.21875 22.703125 74.21875 
z
M 22.703125 66.015625 
Q 19.1875 66.015625 17.28125 62.984375 
Q 15.375 59.96875 15.375 54.390625 
Q 15.375 48.78125 17.28125 45.71875 
Q 19.1875 42.671875 22.703125 42.671875 
Q 26.21875 42.671875 28.09375 45.71875 
Q 29.984375 48.78125 29.984375 54.390625 
Q 29.984375 59.96875 28.078125 62.984375 
Q 26.171875 66.015625 22.703125 66.015625 
z
" id="DejaVuSans-Bold-25"/>
     <path id="DejaVuSans-Bold-20"/>
     <path d="M 52.59375 52.984375 
L 52.59375 38.71875 
Q 49.03125 41.15625 45.4375 42.328125 
Q 41.84375 43.5 37.984375 43.5 
Q 30.671875 43.5 26.59375 39.234375 
Q 22.515625 34.96875 22.515625 27.296875 
Q 22.515625 19.625 26.59375 15.34375 
Q 30.671875 11.078125 37.984375 11.078125 
Q 42.09375 11.078125 45.78125 12.296875 
Q 49.46875 13.53125 52.59375 15.921875 
L 52.59375 1.609375 
Q 48.484375 0.09375 44.265625 -0.65625 
Q 40.046875 -1.421875 35.796875 -1.421875 
Q 21 -1.421875 12.640625 6.171875 
Q 4.296875 13.765625 4.296875 27.296875 
Q 4.296875 40.828125 12.640625 48.40625 
Q 21 56 35.796875 56 
Q 40.09375 56 44.265625 55.25 
Q 48.4375 54.5 52.59375 52.984375 
z
" id="DejaVuSans-Bold-63"/>
     <path d="M 34.421875 43.5 
Q 28.609375 43.5 25.5625 39.328125 
Q 22.515625 35.15625 22.515625 27.296875 
Q 22.515625 19.4375 25.5625 15.25 
Q 28.609375 11.078125 34.421875 11.078125 
Q 40.140625 11.078125 43.15625 15.25 
Q 46.1875 19.4375 46.1875 27.296875 
Q 46.1875 35.15625 43.15625 39.328125 
Q 40.140625 43.5 34.421875 43.5 
z
M 34.421875 56 
Q 48.53125 56 56.46875 48.375 
Q 64.40625 40.765625 64.40625 27.296875 
Q 64.40625 13.8125 56.46875 6.1875 
Q 48.53125 -1.421875 34.421875 -1.421875 
Q 20.265625 -1.421875 12.28125 6.1875 
Q 4.296875 13.8125 4.296875 27.296875 
Q 4.296875 40.765625 12.28125 48.375 
Q 20.265625 56 34.421875 56 
z
" id="DejaVuSans-Bold-6f"/>
     <path d="M 63.375 33.296875 
L 63.375 0 
L 45.796875 0 
L 45.796875 5.421875 
L 45.796875 25.484375 
Q 45.796875 32.5625 45.484375 35.25 
Q 45.171875 37.9375 44.390625 39.203125 
Q 43.359375 40.921875 41.59375 41.875 
Q 39.84375 42.828125 37.59375 42.828125 
Q 32.125 42.828125 29 38.59375 
Q 25.875 34.375 25.875 26.90625 
L 25.875 0 
L 8.40625 0 
L 8.40625 54.6875 
L 25.875 54.6875 
L 25.875 46.6875 
Q 29.828125 51.46875 34.265625 53.734375 
Q 38.71875 56 44.09375 56 
Q 53.5625 56 58.46875 50.1875 
Q 63.375 44.390625 63.375 33.296875 
z
" id="DejaVuSans-Bold-6e"/>
     <path d="M 44.390625 75.984375 
L 44.390625 64.5 
L 34.71875 64.5 
Q 31 64.5 29.53125 63.15625 
Q 28.078125 61.8125 28.078125 58.5 
L 28.078125 54.6875 
L 43.015625 54.6875 
L 43.015625 42.1875 
L 28.078125 42.1875 
L 28.078125 0 
L 10.59375 0 
L 10.59375 42.1875 
L 1.90625 42.1875 
L 1.90625 54.6875 
L 10.59375 54.6875 
L 10.59375 58.5 
Q 10.59375 67.4375 15.578125 71.703125 
Q 20.5625 75.984375 31 75.984375 
z
" id="DejaVuSans-Bold-66"/>
     <path d="M 8.40625 54.6875 
L 25.875 54.6875 
L 25.875 0 
L 8.40625 0 
z
M 8.40625 75.984375 
L 25.875 75.984375 
L 25.875 61.71875 
L 8.40625 61.71875 
z
" id="DejaVuSans-Bold-69"/>
     <path d="M 45.609375 46.6875 
L 45.609375 75.984375 
L 63.1875 75.984375 
L 63.1875 0 
L 45.609375 0 
L 45.609375 7.90625 
Q 42 3.078125 37.640625 0.828125 
Q 33.296875 -1.421875 27.59375 -1.421875 
Q 17.484375 -1.421875 10.984375 6.609375 
Q 4.5 14.65625 4.5 27.296875 
Q 4.5 39.9375 10.984375 47.96875 
Q 17.484375 56 27.59375 56 
Q 33.25 56 37.625 53.734375 
Q 42 51.46875 45.609375 46.6875 
z
M 34.078125 11.28125 
Q 39.703125 11.28125 42.65625 15.375 
Q 45.609375 19.484375 45.609375 27.296875 
Q 45.609375 35.109375 42.65625 39.203125 
Q 39.703125 43.3125 34.078125 43.3125 
Q 28.515625 43.3125 25.5625 39.203125 
Q 22.609375 35.109375 22.609375 27.296875 
Q 22.609375 19.484375 25.5625 15.375 
Q 28.515625 11.28125 34.078125 11.28125 
z
" id="DejaVuSans-Bold-64"/>
     <path d="M 62.984375 27.484375 
L 62.984375 22.515625 
L 22.125 22.515625 
Q 22.75 16.359375 26.5625 13.28125 
Q 30.375 10.203125 37.203125 10.203125 
Q 42.71875 10.203125 48.5 11.84375 
Q 54.296875 13.484375 60.40625 16.796875 
L 60.40625 3.328125 
Q 54.203125 0.984375 48 -0.21875 
Q 41.796875 -1.421875 35.59375 -1.421875 
Q 20.75 -1.421875 12.515625 6.125 
Q 4.296875 13.671875 4.296875 27.296875 
Q 4.296875 40.671875 12.375 48.328125 
Q 20.453125 56 34.625 56 
Q 47.515625 56 55.25 48.234375 
Q 62.984375 40.484375 62.984375 27.484375 
z
M 45.015625 33.296875 
Q 45.015625 38.28125 42.109375 41.328125 
Q 39.203125 44.390625 34.515625 44.390625 
Q 29.4375 44.390625 26.265625 41.53125 
Q 23.09375 38.671875 22.3125 33.296875 
z
" id="DejaVuSans-Bold-65"/>
     <path d="M 8.40625 75.984375 
L 25.875 75.984375 
L 25.875 0 
L 8.40625 0 
z
" id="DejaVuSans-Bold-6c"/>
     <path d="M 25.875 7.90625 
L 25.875 -20.796875 
L 8.40625 -20.796875 
L 8.40625 54.6875 
L 25.875 54.6875 
L 25.875 46.6875 
Q 29.5 51.46875 33.890625 53.734375 
Q 38.28125 56 44 56 
Q 54.109375 56 60.59375 47.96875 
Q 67.09375 39.9375 67.09375 27.296875 
Q 67.09375 14.65625 60.59375 6.609375 
Q 54.109375 -1.421875 44 -1.421875 
Q 38.28125 -1.421875 33.890625 0.84375 
Q 29.5 3.125 25.875 7.90625 
z
M 37.5 43.3125 
Q 31.890625 43.3125 28.875 39.1875 
Q 25.875 35.0625 25.875 27.296875 
Q 25.875 19.53125 28.875 15.40625 
Q 31.890625 11.28125 37.5 11.28125 
Q 43.109375 11.28125 46.0625 15.375 
Q 49.03125 19.484375 49.03125 27.296875 
Q 49.03125 35.109375 46.0625 39.203125 
Q 43.109375 43.3125 37.5 43.3125 
z
" id="DejaVuSans-Bold-70"/>
     <path d="M 51.125 52.984375 
L 51.125 39.703125 
Q 45.515625 42.046875 40.28125 43.21875 
Q 35.0625 44.390625 30.421875 44.390625 
Q 25.4375 44.390625 23.015625 43.140625 
Q 20.609375 41.890625 20.609375 39.3125 
Q 20.609375 37.203125 22.4375 36.078125 
Q 24.265625 34.96875 29 34.421875 
L 32.078125 33.984375 
Q 45.515625 32.28125 50.140625 28.375 
Q 54.78125 24.46875 54.78125 16.109375 
Q 54.78125 7.375 48.328125 2.96875 
Q 41.890625 -1.421875 29.109375 -1.421875 
Q 23.6875 -1.421875 17.890625 -0.5625 
Q 12.109375 0.296875 6 2 
L 6 15.28125 
Q 11.234375 12.75 16.71875 11.46875 
Q 22.21875 10.203125 27.875 10.203125 
Q 33.015625 10.203125 35.59375 11.609375 
Q 38.1875 13.03125 38.1875 15.828125 
Q 38.1875 18.171875 36.40625 19.3125 
Q 34.625 20.453125 29.296875 21.09375 
L 26.21875 21.484375 
Q 14.546875 22.953125 9.859375 26.90625 
Q 5.171875 30.859375 5.171875 38.921875 
Q 5.171875 47.609375 11.125 51.796875 
Q 17.09375 56 29.390625 56 
Q 34.234375 56 39.546875 55.265625 
Q 44.875 54.546875 51.125 52.984375 
z
" id="DejaVuSans-Bold-73"/>
    </defs>
    <g transform="translate(33.579396 25.323656)scale(0.09 -0.09)">
     <use xlink:href="#DejaVuSans-Bold-39"/>
     <use x="69.580078" xlink:href="#DejaVuSans-Bold-35"/>
     <use x="139.160156" xlink:href="#DejaVuSans-Bold-2e"/>
     <use x="177.148438" xlink:href="#DejaVuSans-Bold-30"/>
     <use x="246.728516" xlink:href="#DejaVuSans-Bold-25"/>
     <use x="346.923828" xlink:href="#DejaVuSans-Bold-20"/>
     <use x="381.738281" xlink:href="#DejaVuSans-Bold-63"/>
     <use x="441.015625" xlink:href="#DejaVuSans-Bold-6f"/>
     <use x="509.716797" xlink:href="#DejaVuSans-Bold-6e"/>
     <use x="580.908203" xlink:href="#DejaVuSans-Bold-66"/>
     <use x="624.414062" xlink:href="#DejaVuSans-Bold-69"/>
     <use x="658.691406" xlink:href="#DejaVuSans-Bold-64"/>
     <use x="730.273438" xlink:href="#DejaVuSans-Bold-65"/>
     <use x="798.095703" xlink:href="#DejaVuSans-Bold-6e"/>
     <use x="869.287109" xlink:href="#DejaVuSans-Bold-63"/>
     <use x="928.564453" xlink:href="#DejaVuSans-Bold-65"/>
     <use x="996.386719" xlink:href="#DejaVuSans-Bold-20"/>
     <use x="1031.201172" xlink:href="#DejaVuSans-Bold-65"/>
     <use x="1099.023438" xlink:href="#DejaVuSans-Bold-6c"/>
     <use x="1133.300781" xlink:href="#DejaVuSans-Bold-6c"/>
     <use x="1167.578125" xlink:href="#DejaVuSans-Bold-69"/>
     <use x="1201.855469" xlink:href="#DejaVuSans-Bold-70"/>
     <use x="1273.4375" xlink:href="#DejaVuSans-Bold-73"/>
     <use x="1332.958984" xlink:href="#DejaVuSans-Bold-65"/>
     <use x="1400.78125" xlink:href="#DejaVuSans-Bold-20"/>
    </g>
    <!-- of major eigenvector -->
    <defs>
     <path d="M 59.078125 45.609375 
Q 62.40625 50.6875 66.96875 53.34375 
Q 71.53125 56 77 56 
Q 86.421875 56 91.359375 50.1875 
Q 96.296875 44.390625 96.296875 33.296875 
L 96.296875 0 
L 78.71875 0 
L 78.71875 28.515625 
Q 78.765625 29.15625 78.78125 29.828125 
Q 78.8125 30.515625 78.8125 31.78125 
Q 78.8125 37.59375 77.09375 40.203125 
Q 75.390625 42.828125 71.578125 42.828125 
Q 66.609375 42.828125 63.890625 38.71875 
Q 61.1875 34.625 61.078125 26.859375 
L 61.078125 0 
L 43.5 0 
L 43.5 28.515625 
Q 43.5 37.59375 41.9375 40.203125 
Q 40.375 42.828125 36.375 42.828125 
Q 31.34375 42.828125 28.609375 38.703125 
Q 25.875 34.578125 25.875 26.90625 
L 25.875 0 
L 8.296875 0 
L 8.296875 54.6875 
L 25.875 54.6875 
L 25.875 46.6875 
Q 29.109375 51.3125 33.28125 53.65625 
Q 37.453125 56 42.484375 56 
Q 48.140625 56 52.484375 53.265625 
Q 56.84375 50.53125 59.078125 45.609375 
z
" id="DejaVuSans-Bold-6d"/>
     <path d="M 32.90625 24.609375 
Q 27.4375 24.609375 24.671875 22.75 
Q 21.921875 20.90625 21.921875 17.28125 
Q 21.921875 13.96875 24.140625 12.078125 
Q 26.375 10.203125 30.328125 10.203125 
Q 35.25 10.203125 38.625 13.734375 
Q 42 17.28125 42 22.609375 
L 42 24.609375 
z
M 59.625 31.203125 
L 59.625 0 
L 42 0 
L 42 8.109375 
Q 38.484375 3.125 34.078125 0.84375 
Q 29.6875 -1.421875 23.390625 -1.421875 
Q 14.890625 -1.421875 9.59375 3.53125 
Q 4.296875 8.5 4.296875 16.40625 
Q 4.296875 26.03125 10.90625 30.515625 
Q 17.53125 35.015625 31.6875 35.015625 
L 42 35.015625 
L 42 36.375 
Q 42 40.53125 38.71875 42.453125 
Q 35.453125 44.390625 28.515625 44.390625 
Q 22.90625 44.390625 18.0625 43.265625 
Q 13.234375 42.140625 9.078125 39.890625 
L 9.078125 53.21875 
Q 14.703125 54.59375 20.359375 55.296875 
Q 26.03125 56 31.6875 56 
Q 46.484375 56 53.046875 50.171875 
Q 59.625 44.34375 59.625 31.203125 
z
" id="DejaVuSans-Bold-61"/>
     <path d="M 8.40625 54.6875 
L 25.875 54.6875 
L 25.875 0.984375 
Q 25.875 -10.015625 20.59375 -15.796875 
Q 15.328125 -21.578125 5.328125 -21.578125 
L -3.328125 -21.578125 
L -3.328125 -10.109375 
L -0.296875 -10.109375 
Q 4.6875 -10.109375 6.546875 -7.859375 
Q 8.40625 -5.609375 8.40625 0.984375 
z
M 8.40625 75.984375 
L 25.875 75.984375 
L 25.875 61.71875 
L 8.40625 61.71875 
z
" id="DejaVuSans-Bold-6a"/>
     <path d="M 49.03125 39.796875 
Q 46.734375 40.875 44.453125 41.375 
Q 42.1875 41.890625 39.890625 41.890625 
Q 33.15625 41.890625 29.515625 37.5625 
Q 25.875 33.25 25.875 25.203125 
L 25.875 0 
L 8.40625 0 
L 8.40625 54.6875 
L 25.875 54.6875 
L 25.875 45.703125 
Q 29.25 51.078125 33.609375 53.53125 
Q 37.984375 56 44.09375 56 
Q 44.96875 56 45.984375 55.921875 
Q 47.015625 55.859375 48.96875 55.609375 
z
" id="DejaVuSans-Bold-72"/>
     <path d="M 45.609375 9.28125 
Q 42 4.5 37.640625 2.25 
Q 33.296875 0 27.59375 0 
Q 17.578125 0 11.03125 7.875 
Q 4.5 15.765625 4.5 27.984375 
Q 4.5 40.234375 11.03125 48.0625 
Q 17.578125 55.90625 27.59375 55.90625 
Q 33.296875 55.90625 37.640625 53.65625 
Q 42 51.421875 45.609375 46.578125 
L 45.609375 54.6875 
L 63.1875 54.6875 
L 63.1875 5.515625 
Q 63.1875 -7.671875 54.859375 -14.625 
Q 46.53125 -21.578125 30.71875 -21.578125 
Q 25.59375 -21.578125 20.796875 -20.796875 
Q 16.015625 -20.015625 11.1875 -18.40625 
L 11.1875 -4.78125 
Q 15.765625 -7.421875 20.15625 -8.71875 
Q 24.5625 -10.015625 29 -10.015625 
Q 37.59375 -10.015625 41.59375 -6.25 
Q 45.609375 -2.484375 45.609375 5.515625 
z
M 34.078125 43.3125 
Q 28.65625 43.3125 25.625 39.296875 
Q 22.609375 35.296875 22.609375 27.984375 
Q 22.609375 20.453125 25.53125 16.578125 
Q 28.46875 12.703125 34.078125 12.703125 
Q 39.546875 12.703125 42.578125 16.703125 
Q 45.609375 20.703125 45.609375 27.984375 
Q 45.609375 35.296875 42.578125 39.296875 
Q 39.546875 43.3125 34.078125 43.3125 
z
" id="DejaVuSans-Bold-67"/>
     <path d="M 1.515625 54.6875 
L 19 54.6875 
L 32.625 16.890625 
L 46.1875 54.6875 
L 63.71875 54.6875 
L 42.1875 0 
L 23 0 
z
" id="DejaVuSans-Bold-76"/>
     <path d="M 27.484375 70.21875 
L 27.484375 54.6875 
L 45.515625 54.6875 
L 45.515625 42.1875 
L 27.484375 42.1875 
L 27.484375 19 
Q 27.484375 15.1875 29 13.84375 
Q 30.515625 12.5 35.015625 12.5 
L 44 12.5 
L 44 0 
L 29 0 
Q 18.65625 0 14.328125 4.3125 
Q 10.015625 8.640625 10.015625 19 
L 10.015625 42.1875 
L 1.3125 42.1875 
L 1.3125 54.6875 
L 10.015625 54.6875 
L 10.015625 70.21875 
z
" id="DejaVuSans-Bold-74"/>
    </defs>
    <g transform="translate(45.233693 35.401688)scale(0.09 -0.09)">
     <use xlink:href="#DejaVuSans-Bold-6f"/>
     <use x="68.701172" xlink:href="#DejaVuSans-Bold-66"/>
     <use x="112.207031" xlink:href="#DejaVuSans-Bold-20"/>
     <use x="147.021484" xlink:href="#DejaVuSans-Bold-6d"/>
     <use x="251.220703" xlink:href="#DejaVuSans-Bold-61"/>
     <use x="318.701172" xlink:href="#DejaVuSans-Bold-6a"/>
     <use x="352.978516" xlink:href="#DejaVuSans-Bold-6f"/>
     <use x="421.679688" xlink:href="#DejaVuSans-Bold-72"/>
     <use x="470.996094" xlink:href="#DejaVuSans-Bold-20"/>
     <use x="505.810547" xlink:href="#DejaVuSans-Bold-65"/>
     <use x="573.632812" xlink:href="#DejaVuSans-Bold-69"/>
     <use x="607.910156" xlink:href="#DejaVuSans-Bold-67"/>
     <use x="679.492188" xlink:href="#DejaVuSans-Bold-65"/>
     <use x="747.314453" xlink:href="#DejaVuSans-Bold-6e"/>
     <use x="818.505859" xlink:href="#DejaVuSans-Bold-76"/>
     <use x="883.691406" xlink:href="#DejaVuSans-Bold-65"/>
     <use x="951.513672" xlink:href="#DejaVuSans-Bold-63"/>
     <use x="1010.791016" xlink:href="#DejaVuSans-Bold-74"/>
     <use x="1058.59375" xlink:href="#DejaVuSans-Bold-6f"/>
     <use x="1127.294922" xlink:href="#DejaVuSans-Bold-72"/>
    </g>
   </g>
  </g>
  <g id="axes_2">
   <g id="patch_7">
    <path d="M 195.578182 307.584 
L 276.741818 307.584 
L 276.741818 41.472 
L 195.578182 41.472 
z
" style="fill:#ffffff;"/>
   </g>
   <g id="matplotlib.axis_3">
    <g id="xtick_4">
     <g id="line2d_20">
      <path clip-path="url(#p1fe8c94500)" d="M 199.973584 307.584 
L 199.973584 41.472 
" style="fill:none;stroke:#b0b0b0;stroke-dasharray:1.85,0.8;stroke-dashoffset:0;stroke-width:0.5;"/>
     </g>
     <g id="line2d_21">
      <g>
       <use style="stroke:#000000;stroke-width:0.8;" x="199.973584" xlink:href="#m717907cae6" y="307.584"/>
      </g>
     </g>
     <g id="text_12">
      <!-- −0.2 -->
      <g transform="translate(191.4746 319.902906)scale(0.07 -0.07)">
       <use xlink:href="#DejaVuSans-2212"/>
       <use x="83.789062" xlink:href="#DejaVuSans-30"/>
       <use x="147.412109" xlink:href="#DejaVuSans-2e"/>
       <use x="179.199219" xlink:href="#DejaVuSans-32"/>
      </g>
     </g>
    </g>
    <g id="xtick_5">
     <g id="line2d_22">
      <path clip-path="url(#p1fe8c94500)" d="M 236.159987 307.584 
L 236.159987 41.472 
" style="fill:none;stroke:#b0b0b0;stroke-dasharray:1.85,0.8;stroke-dashoffset:0;stroke-width:0.5;"/>
     </g>
     <g id="line2d_23">
      <g>
       <use style="stroke:#000000;stroke-width:0.8;" x="236.159987" xlink:href="#m717907cae6" y="307.584"/>
      </g>
     </g>
     <g id="text_13">
      <!-- 0.0 -->
      <g transform="translate(230.593893 319.902906)scale(0.07 -0.07)">
       <use xlink:href="#DejaVuSans-30"/>
       <use x="63.623047" xlink:href="#DejaVuSans-2e"/>
       <use x="95.410156" xlink:href="#DejaVuSans-30"/>
      </g>
     </g>
    </g>
    <g id="xtick_6">
     <g id="line2d_24">
      <path clip-path="url(#p1fe8c94500)" d="M 272.34639 307.584 
L 272.34639 41.472 
" style="fill:none;stroke:#b0b0b0;stroke-dasharray:1.85,0.8;stroke-dashoffset:0;stroke-width:0.5;"/>
     </g>
     <g id="line2d_25">
      <g>
       <use style="stroke:#000000;stroke-width:0.8;" x="272.34639" xlink:href="#m717907cae6" y="307.584"/>
      </g>
     </g>
     <g id="text_14">
      <!-- 0.2 -->
      <g transform="translate(266.780297 319.902906)scale(0.07 -0.07)">
       <use xlink:href="#DejaVuSans-30"/>
       <use x="63.623047" xlink:href="#DejaVuSans-2e"/>
       <use x="95.410156" xlink:href="#DejaVuSans-32"/>
      </g>
     </g>
    </g>
    <g id="text_15">
     <!-- $p_3$ -->
     <g transform="translate(230.61 332.936812)scale(0.1 -0.1)">
      <use xlink:href="#DejaVuSans-Oblique-70"/>
      <use transform="translate(63.476562 -16.40625)scale(0.7)" xlink:href="#DejaVuSans-33"/>
     </g>
    </g>
   </g>
   <g id="matplotlib.axis_4">
    <g id="ytick_6">
     <g id="line2d_26">
      <path clip-path="url(#p1fe8c94500)" d="M 195.578182 283.087858 
L 276.741818 283.087858 
" style="fill:none;stroke:#b0b0b0;stroke-dasharray:1.85,0.8;stroke-dashoffset:0;stroke-width:0.5;"/>
     </g>
     <g id="line2d_27">
      <g>
       <use style="stroke:#000000;stroke-width:0.8;" x="195.578182" xlink:href="#mef2674f2b1" y="283.087858"/>
      </g>
     </g>
     <g id="text_16">
      <!-- −0.6 -->
      <defs>
       <path d="M 33.015625 40.375 
Q 26.375 40.375 22.484375 35.828125 
Q 18.609375 31.296875 18.609375 23.390625 
Q 18.609375 15.53125 22.484375 10.953125 
Q 26.375 6.390625 33.015625 6.390625 
Q 39.65625 6.390625 43.53125 10.953125 
Q 47.40625 15.53125 47.40625 23.390625 
Q 47.40625 31.296875 43.53125 35.828125 
Q 39.65625 40.375 33.015625 40.375 
z
M 52.59375 71.296875 
L 52.59375 62.3125 
Q 48.875 64.0625 45.09375 64.984375 
Q 41.3125 65.921875 37.59375 65.921875 
Q 27.828125 65.921875 22.671875 59.328125 
Q 17.53125 52.734375 16.796875 39.40625 
Q 19.671875 43.65625 24.015625 45.921875 
Q 28.375 48.1875 33.59375 48.1875 
Q 44.578125 48.1875 50.953125 41.515625 
Q 57.328125 34.859375 57.328125 23.390625 
Q 57.328125 12.15625 50.6875 5.359375 
Q 44.046875 -1.421875 33.015625 -1.421875 
Q 20.359375 -1.421875 13.671875 8.265625 
Q 6.984375 17.96875 6.984375 36.375 
Q 6.984375 53.65625 15.1875 63.9375 
Q 23.390625 74.21875 37.203125 74.21875 
Q 40.921875 74.21875 44.703125 73.484375 
Q 48.484375 72.75 52.59375 71.296875 
z
" id="DejaVuSans-36"/>
      </defs>
      <g transform="translate(171.580213 285.747311)scale(0.07 -0.07)">
       <use xlink:href="#DejaVuSans-2212"/>
       <use x="83.789062" xlink:href="#DejaVuSans-30"/>
       <use x="147.412109" xlink:href="#DejaVuSans-2e"/>
       <use x="179.199219" xlink:href="#DejaVuSans-36"/>
      </g>
     </g>
    </g>
    <g id="ytick_7">
     <g id="line2d_28">
      <path clip-path="url(#p1fe8c94500)" d="M 195.578182 246.901454 
L 276.741818 246.901454 
" style="fill:none;stroke:#b0b0b0;stroke-dasharray:1.85,0.8;stroke-dashoffset:0;stroke-width:0.5;"/>
     </g>
     <g id="line2d_29">
      <g>
       <use style="stroke:#000000;stroke-width:0.8;" x="195.578182" xlink:href="#mef2674f2b1" y="246.901454"/>
      </g>
     </g>
     <g id="text_17">
      <!-- −0.4 -->
      <defs>
       <path d="M 37.796875 64.3125 
L 12.890625 25.390625 
L 37.796875 25.390625 
z
M 35.203125 72.90625 
L 47.609375 72.90625 
L 47.609375 25.390625 
L 58.015625 25.390625 
L 58.015625 17.1875 
L 47.609375 17.1875 
L 47.609375 0 
L 37.796875 0 
L 37.796875 17.1875 
L 4.890625 17.1875 
L 4.890625 26.703125 
z
" id="DejaVuSans-34"/>
      </defs>
      <g transform="translate(171.580213 249.560907)scale(0.07 -0.07)">
       <use xlink:href="#DejaVuSans-2212"/>
       <use x="83.789062" xlink:href="#DejaVuSans-30"/>
       <use x="147.412109" xlink:href="#DejaVuSans-2e"/>
       <use x="179.199219" xlink:href="#DejaVuSans-34"/>
      </g>
     </g>
    </g>
    <g id="ytick_8">
     <g id="line2d_30">
      <path clip-path="url(#p1fe8c94500)" d="M 195.578182 210.715051 
L 276.741818 210.715051 
" style="fill:none;stroke:#b0b0b0;stroke-dasharray:1.85,0.8;stroke-dashoffset:0;stroke-width:0.5;"/>
     </g>
     <g id="line2d_31">
      <g>
       <use style="stroke:#000000;stroke-width:0.8;" x="195.578182" xlink:href="#mef2674f2b1" y="210.715051"/>
      </g>
     </g>
     <g id="text_18">
      <!-- −0.2 -->
      <g transform="translate(171.580213 213.374504)scale(0.07 -0.07)">
       <use xlink:href="#DejaVuSans-2212"/>
       <use x="83.789062" xlink:href="#DejaVuSans-30"/>
       <use x="147.412109" xlink:href="#DejaVuSans-2e"/>
       <use x="179.199219" xlink:href="#DejaVuSans-32"/>
      </g>
     </g>
    </g>
    <g id="ytick_9">
     <g id="line2d_32">
      <path clip-path="url(#p1fe8c94500)" d="M 195.578182 174.528648 
L 276.741818 174.528648 
" style="fill:none;stroke:#b0b0b0;stroke-dasharray:1.85,0.8;stroke-dashoffset:0;stroke-width:0.5;"/>
     </g>
     <g id="line2d_33">
      <g>
       <use style="stroke:#000000;stroke-width:0.8;" x="195.578182" xlink:href="#mef2674f2b1" y="174.528648"/>
      </g>
     </g>
     <g id="text_19">
      <!-- 0.0 -->
      <g transform="translate(177.445994 177.188101)scale(0.07 -0.07)">
       <use xlink:href="#DejaVuSans-30"/>
       <use x="63.623047" xlink:href="#DejaVuSans-2e"/>
       <use x="95.410156" xlink:href="#DejaVuSans-30"/>
      </g>
     </g>
    </g>
    <g id="ytick_10">
     <g id="line2d_34">
      <path clip-path="url(#p1fe8c94500)" d="M 195.578182 138.342245 
L 276.741818 138.342245 
" style="fill:none;stroke:#b0b0b0;stroke-dasharray:1.85,0.8;stroke-dashoffset:0;stroke-width:0.5;"/>
     </g>
     <g id="line2d_35">
      <g>
       <use style="stroke:#000000;stroke-width:0.8;" x="195.578182" xlink:href="#mef2674f2b1" y="138.342245"/>
      </g>
     </g>
     <g id="text_20">
      <!-- 0.2 -->
      <g transform="translate(177.445994 141.001698)scale(0.07 -0.07)">
       <use xlink:href="#DejaVuSans-30"/>
       <use x="63.623047" xlink:href="#DejaVuSans-2e"/>
       <use x="95.410156" xlink:href="#DejaVuSans-32"/>
      </g>
     </g>
    </g>
    <g id="ytick_11">
     <g id="line2d_36">
      <path clip-path="url(#p1fe8c94500)" d="M 195.578182 102.155841 
L 276.741818 102.155841 
" style="fill:none;stroke:#b0b0b0;stroke-dasharray:1.85,0.8;stroke-dashoffset:0;stroke-width:0.5;"/>
     </g>
     <g id="line2d_37">
      <g>
       <use style="stroke:#000000;stroke-width:0.8;" x="195.578182" xlink:href="#mef2674f2b1" y="102.155841"/>
      </g>
     </g>
     <g id="text_21">
      <!-- 0.4 -->
      <g transform="translate(177.445994 104.815294)scale(0.07 -0.07)">
       <use xlink:href="#DejaVuSans-30"/>
       <use x="63.623047" xlink:href="#DejaVuSans-2e"/>
       <use x="95.410156" xlink:href="#DejaVuSans-34"/>
      </g>
     </g>
    </g>
    <g id="ytick_12">
     <g id="line2d_38">
      <path clip-path="url(#p1fe8c94500)" d="M 195.578182 65.969438 
L 276.741818 65.969438 
" style="fill:none;stroke:#b0b0b0;stroke-dasharray:1.85,0.8;stroke-dashoffset:0;stroke-width:0.5;"/>
     </g>
     <g id="line2d_39">
      <g>
       <use style="stroke:#000000;stroke-width:0.8;" x="195.578182" xlink:href="#mef2674f2b1" y="65.969438"/>
      </g>
     </g>
     <g id="text_22">
      <!-- 0.6 -->
      <g transform="translate(177.445994 68.628891)scale(0.07 -0.07)">
       <use xlink:href="#DejaVuSans-30"/>
       <use x="63.623047" xlink:href="#DejaVuSans-2e"/>
       <use x="95.410156" xlink:href="#DejaVuSans-36"/>
      </g>
     </g>
    </g>
    <g id="text_23">
     <!-- $p_1$ -->
     <g transform="translate(165.480213 180.078)rotate(-90)scale(0.1 -0.1)">
      <use xlink:href="#DejaVuSans-Oblique-70"/>
      <use transform="translate(63.476562 -16.40625)scale(0.7)" xlink:href="#DejaVuSans-31"/>
     </g>
    </g>
   </g>
   <g id="line2d_40">
    <path clip-path="url(#p1fe8c94500)" d="M 242.680651 295.485797 
L 243.332071 295.36414 
L 244.184555 294.933816 
L 245.016687 294.198117 
L 245.826356 293.15891 
L 246.61151 291.818831 
L 247.555448 289.72588 
L 248.454234 287.176475 
L 249.468174 283.529017 
L 250.406191 279.259714 
L 251.262933 274.392922 
L 252.153251 267.997061 
L 252.9194 260.875531 
L 253.635372 251.919234 
L 254.174171 242.178317 
L 254.530334 231.751537 
L 254.70025 220.744607 
L 254.666711 207.807487 
L 254.395758 194.443447 
L 253.890865 180.823928 
L 253.158511 167.12365 
L 252.208089 153.518367 
L 251.051793 140.182617 
L 249.704456 127.287477 
L 248.183362 114.998375 
L 246.701139 104.711159 
L 245.112045 95.131784 
L 243.43219 86.35737 
L 241.901236 79.410228 
L 240.325707 73.201566 
L 238.717837 67.779585 
L 237.323379 63.790388 
L 235.922284 60.432952 
L 234.755401 58.131613 
L 233.594083 56.291482 
L 232.442933 54.91985 
L 231.5324 54.16358 
L 230.633604 53.712582 
L 229.748824 53.568 
L 229.095788 53.660899 
L 228.452831 53.926247 
L 227.612817 54.547607 
L 226.79448 55.473266 
L 225.999896 56.700876 
L 225.043133 58.65519 
L 224.130419 61.068638 
L 223.265371 63.931657 
L 222.295044 67.944617 
L 221.403816 72.565637 
L 220.470779 78.689992 
L 219.65955 85.558418 
L 218.976427 93.117589 
L 218.359335 102.52694 
L 217.922715 112.666276 
L 217.670992 123.4328 
L 217.611918 136.158702 
L 217.790789 149.376836 
L 218.205311 162.917633 
L 218.850166 176.607382 
L 219.717082 190.270464 
L 220.794937 203.731601 
L 222.069904 216.818105 
L 223.525627 229.362096 
L 225.143431 241.20265 
L 226.700811 251.014016 
L 228.354093 260.049939 
L 230.086514 268.218809 
L 231.65351 274.589976 
L 233.255494 280.184289 
L 234.647047 284.328007 
L 236.047232 287.845322 
L 237.44806 290.716167 
L 238.610141 292.602778 
L 239.762514 294.021534 
L 240.674352 294.815845 
L 241.574741 295.30508 
L 242.461397 295.488 
L 242.680651 295.485797 
L 242.680651 295.485797 
" style="fill:none;stroke:#000000;stroke-linecap:square;stroke-width:1.5;"/>
   </g>
   <g id="line2d_41">
    <path clip-path="url(#p1fe8c94500)" d="M 242.680651 295.485797 
L 243.332071 295.36414 
L 244.184555 294.933816 
L 245.016687 294.198117 
L 245.826356 293.15891 
L 246.61151 291.818831 
L 247.555448 289.72588 
L 248.454234 287.176475 
L 249.468174 283.529017 
L 250.406191 279.259714 
L 251.262933 274.392922 
L 252.153251 267.997061 
L 252.9194 260.875531 
L 253.635372 251.919234 
L 254.174171 242.178317 
L 254.530334 231.751537 
L 254.70025 220.744607 
L 254.666711 207.807487 
L 254.395758 194.443447 
L 253.890865 180.823928 
L 253.158511 167.12365 
L 252.208089 153.518367 
L 251.051793 140.182617 
L 249.704456 127.287477 
L 248.183362 114.998375 
L 246.701139 104.711159 
L 245.112045 95.131784 
L 243.43219 86.35737 
L 241.901236 79.410228 
L 240.325707 73.201566 
L 238.717837 67.779585 
L 237.323379 63.790388 
L 235.922284 60.432952 
L 234.755401 58.131613 
L 233.594083 56.291482 
L 232.442933 54.91985 
L 231.5324 54.16358 
L 230.633604 53.712582 
L 229.748824 53.568 
L 229.095788 53.660899 
L 228.452831 53.926247 
L 227.612817 54.547607 
L 226.79448 55.473266 
L 225.999896 56.700876 
L 225.043133 58.65519 
L 224.130419 61.068638 
L 223.265371 63.931657 
L 222.295044 67.944617 
L 221.403816 72.565637 
L 220.470779 78.689992 
L 219.65955 85.558418 
L 218.976427 93.117589 
L 218.359335 102.52694 
L 217.922715 112.666276 
L 217.670992 123.4328 
L 217.611918 136.158702 
L 217.790789 149.376836 
L 218.205311 162.917633 
L 218.850166 176.607382 
L 219.717082 190.270464 
L 220.794937 203.731601 
L 222.069904 216.818105 
L 223.525627 229.362096 
L 225.143431 241.20265 
L 226.700811 251.014016 
L 228.354093 260.049939 
L 230.086514 268.218809 
L 231.65351 274.589976 
L 233.255494 280.184289 
L 234.647047 284.328007 
L 236.047232 287.845322 
L 237.44806 290.716167 
L 238.610141 292.602778 
L 239.762514 294.021534 
L 240.674352 294.815845 
L 241.574741 295.30508 
L 242.461397 295.488 
L 242.680651 295.485797 
L 242.680651 295.485797 
" style="fill:none;stroke:#000000;stroke-linecap:square;stroke-width:1.5;"/>
   </g>
   <g id="line2d_42">
    <path clip-path="url(#p1fe8c94500)" d="M 242.680651 295.485797 
L 243.332071 295.36414 
L 244.184555 294.933816 
L 245.016687 294.198117 
L 245.826356 293.15891 
L 246.61151 291.818831 
L 247.555448 289.72588 
L 248.454234 287.176475 
L 249.468174 283.529017 
L 250.406191 279.259714 
L 251.262933 274.392922 
L 252.153251 267.997061 
L 252.9194 260.875531 
L 253.635372 251.919234 
L 254.174171 242.178317 
L 254.530334 231.751537 
L 254.70025 220.744607 
L 254.666711 207.807487 
L 254.395758 194.443447 
L 253.890865 180.823928 
L 253.158511 167.12365 
L 252.208089 153.518367 
L 251.051793 140.182617 
L 249.704456 127.287477 
L 248.183362 114.998375 
L 246.701139 104.711159 
L 245.112045 95.131784 
L 243.43219 86.35737 
L 241.901236 79.410228 
L 240.325707 73.201566 
L 238.717837 67.779585 
L 237.323379 63.790388 
L 235.922284 60.432952 
L 234.755401 58.131613 
L 233.594083 56.291482 
L 232.442933 54.91985 
L 231.5324 54.16358 
L 230.633604 53.712582 
L 229.748824 53.568 
L 229.095788 53.660899 
L 228.452831 53.926247 
L 227.612817 54.547607 
L 226.79448 55.473266 
L 225.999896 56.700876 
L 225.043133 58.65519 
L 224.130419 61.068638 
L 223.265371 63.931657 
L 222.295044 67.944617 
L 221.403816 72.565637 
L 220.470779 78.689992 
L 219.65955 85.558418 
L 218.976427 93.117589 
L 218.359335 102.52694 
L 217.922715 112.666276 
L 217.670992 123.4328 
L 217.611918 136.158702 
L 217.790789 149.376836 
L 218.205311 162.917633 
L 218.850166 176.607382 
L 219.717082 190.270464 
L 220.794937 203.731601 
L 222.069904 216.818105 
L 223.525627 229.362096 
L 225.143431 241.20265 
L 226.700811 251.014016 
L 228.354093 260.049939 
L 230.086514 268.218809 
L 231.65351 274.589976 
L 233.255494 280.184289 
L 234.647047 284.328007 
L 236.047232 287.845322 
L 237.44806 290.716167 
L 238.610141 292.602778 
L 239.762514 294.021534 
L 240.674352 294.815845 
L 241.574741 295.30508 
L 242.461397 295.488 
L 242.680651 295.485797 
L 242.680651 295.485797 
" style="fill:none;stroke:#000000;stroke-linecap:square;stroke-width:1.5;"/>
   </g>
   <g id="patch_8">
    <path d="M 195.578182 307.584 
L 195.578182 41.472 
" style="fill:none;stroke:#000000;stroke-linecap:square;stroke-linejoin:miter;stroke-width:0.8;"/>
   </g>
   <g id="patch_9">
    <path d="M 276.741818 307.584 
L 276.741818 41.472 
" style="fill:none;stroke:#000000;stroke-linecap:square;stroke-linejoin:miter;stroke-width:0.8;"/>
   </g>
   <g id="patch_10">
    <path d="M 195.578182 307.584 
L 276.741818 307.584 
" style="fill:none;stroke:#000000;stroke-linecap:square;stroke-linejoin:miter;stroke-width:0.8;"/>
   </g>
   <g id="patch_11">
    <path d="M 195.578182 41.472 
L 276.741818 41.472 
" style="fill:none;stroke:#000000;stroke-linecap:square;stroke-linejoin:miter;stroke-width:0.8;"/>
   </g>
   <g id="text_24">
    <!-- 95.0% confidence ellipse  -->
    <g transform="translate(171.557578 25.323656)scale(0.09 -0.09)">
     <use xlink:href="#DejaVuSans-Bold-39"/>
     <use x="69.580078" xlink:href="#DejaVuSans-Bold-35"/>
     <use x="139.160156" xlink:href="#DejaVuSans-Bold-2e"/>
     <use x="177.148438" xlink:href="#DejaVuSans-Bold-30"/>
     <use x="246.728516" xlink:href="#DejaVuSans-Bold-25"/>
     <use x="346.923828" xlink:href="#DejaVuSans-Bold-20"/>
     <use x="381.738281" xlink:href="#DejaVuSans-Bold-63"/>
     <use x="441.015625" xlink:href="#DejaVuSans-Bold-6f"/>
     <use x="509.716797" xlink:href="#DejaVuSans-Bold-6e"/>
     <use x="580.908203" xlink:href="#DejaVuSans-Bold-66"/>
     <use x="624.414062" xlink:href="#DejaVuSans-Bold-69"/>
     <use x="658.691406" xlink:href="#DejaVuSans-Bold-64"/>
     <use x="730.273438" xlink:href="#DejaVuSans-Bold-65"/>
     <use x="798.095703" xlink:href="#DejaVuSans-Bold-6e"/>
     <use x="869.287109" xlink:href="#DejaVuSans-Bold-63"/>
     <use x="928.564453" xlink:href="#DejaVuSans-Bold-65"/>
     <use x="996.386719" xlink:href="#DejaVuSans-Bold-20"/>
     <use x="1031.201172" xlink:href="#DejaVuSans-Bold-65"/>
     <use x="1099.023438" xlink:href="#DejaVuSans-Bold-6c"/>
     <use x="1133.300781" xlink:href="#DejaVuSans-Bold-6c"/>
     <use x="1167.578125" xlink:href="#DejaVuSans-Bold-69"/>
     <use x="1201.855469" xlink:href="#DejaVuSans-Bold-70"/>
     <use x="1273.4375" xlink:href="#DejaVuSans-Bold-73"/>
     <use x="1332.958984" xlink:href="#DejaVuSans-Bold-65"/>
     <use x="1400.78125" xlink:href="#DejaVuSans-Bold-20"/>
    </g>
    <!-- of intermediate eigenvector -->
    <g transform="translate(164.877891 35.401688)scale(0.09 -0.09)">
     <use xlink:href="#DejaVuSans-Bold-6f"/>
     <use x="68.701172" xlink:href="#DejaVuSans-Bold-66"/>
     <use x="112.207031" xlink:href="#DejaVuSans-Bold-20"/>
     <use x="147.021484" xlink:href="#DejaVuSans-Bold-69"/>
     <use x="181.298828" xlink:href="#DejaVuSans-Bold-6e"/>
     <use x="252.490234" xlink:href="#DejaVuSans-Bold-74"/>
     <use x="300.292969" xlink:href="#DejaVuSans-Bold-65"/>
     <use x="368.115234" xlink:href="#DejaVuSans-Bold-72"/>
     <use x="417.431641" xlink:href="#DejaVuSans-Bold-6d"/>
     <use x="521.630859" xlink:href="#DejaVuSans-Bold-65"/>
     <use x="589.453125" xlink:href="#DejaVuSans-Bold-64"/>
     <use x="661.035156" xlink:href="#DejaVuSans-Bold-69"/>
     <use x="695.3125" xlink:href="#DejaVuSans-Bold-61"/>
     <use x="762.792969" xlink:href="#DejaVuSans-Bold-74"/>
     <use x="810.595703" xlink:href="#DejaVuSans-Bold-65"/>
     <use x="878.417969" xlink:href="#DejaVuSans-Bold-20"/>
     <use x="913.232422" xlink:href="#DejaVuSans-Bold-65"/>
     <use x="981.054688" xlink:href="#DejaVuSans-Bold-69"/>
     <use x="1015.332031" xlink:href="#DejaVuSans-Bold-67"/>
     <use x="1086.914062" xlink:href="#DejaVuSans-Bold-65"/>
     <use x="1154.736328" xlink:href="#DejaVuSans-Bold-6e"/>
     <use x="1225.927734" xlink:href="#DejaVuSans-Bold-76"/>
     <use x="1291.113281" xlink:href="#DejaVuSans-Bold-65"/>
     <use x="1358.935547" xlink:href="#DejaVuSans-Bold-63"/>
     <use x="1418.212891" xlink:href="#DejaVuSans-Bold-74"/>
     <use x="1466.015625" xlink:href="#DejaVuSans-Bold-6f"/>
     <use x="1534.716797" xlink:href="#DejaVuSans-Bold-72"/>
    </g>
   </g>
  </g>
  <g id="axes_3">
   <g id="patch_12">
    <path d="M 333.556364 307.584 
L 414.72 307.584 
L 414.72 41.472 
L 333.556364 41.472 
z
" style="fill:#ffffff;"/>
   </g>
   <g id="matplotlib.axis_5">
    <g id="xtick_7">
     <g id="line2d_43">
      <path clip-path="url(#p38c5a7f820)" d="M 337.401198 307.584 
L 337.401198 41.472 
" style="fill:none;stroke:#b0b0b0;stroke-dasharray:1.85,0.8;stroke-dashoffset:0;stroke-width:0.5;"/>
     </g>
     <g id="line2d_44">
      <g>
       <use style="stroke:#000000;stroke-width:0.8;" x="337.401198" xlink:href="#m717907cae6" y="307.584"/>
      </g>
     </g>
     <g id="text_25">
      <!-- −0.1 -->
      <g transform="translate(328.902214 319.902906)scale(0.07 -0.07)">
       <use xlink:href="#DejaVuSans-2212"/>
       <use x="83.789062" xlink:href="#DejaVuSans-30"/>
       <use x="147.412109" xlink:href="#DejaVuSans-2e"/>
       <use x="179.199219" xlink:href="#DejaVuSans-31"/>
      </g>
     </g>
    </g>
    <g id="xtick_8">
     <g id="line2d_45">
      <path clip-path="url(#p38c5a7f820)" d="M 374.138028 307.584 
L 374.138028 41.472 
" style="fill:none;stroke:#b0b0b0;stroke-dasharray:1.85,0.8;stroke-dashoffset:0;stroke-width:0.5;"/>
     </g>
     <g id="line2d_46">
      <g>
       <use style="stroke:#000000;stroke-width:0.8;" x="374.138028" xlink:href="#m717907cae6" y="307.584"/>
      </g>
     </g>
     <g id="text_26">
      <!-- 0.0 -->
      <g transform="translate(368.571934 319.902906)scale(0.07 -0.07)">
       <use xlink:href="#DejaVuSans-30"/>
       <use x="63.623047" xlink:href="#DejaVuSans-2e"/>
       <use x="95.410156" xlink:href="#DejaVuSans-30"/>
      </g>
     </g>
    </g>
    <g id="xtick_9">
     <g id="line2d_47">
      <path clip-path="url(#p38c5a7f820)" d="M 410.874857 307.584 
L 410.874857 41.472 
" style="fill:none;stroke:#b0b0b0;stroke-dasharray:1.85,0.8;stroke-dashoffset:0;stroke-width:0.5;"/>
     </g>
     <g id="line2d_48">
      <g>
       <use style="stroke:#000000;stroke-width:0.8;" x="410.874857" xlink:href="#m717907cae6" y="307.584"/>
      </g>
     </g>
     <g id="text_27">
      <!-- 0.1 -->
      <g transform="translate(405.308763 319.902906)scale(0.07 -0.07)">
       <use xlink:href="#DejaVuSans-30"/>
       <use x="63.623047" xlink:href="#DejaVuSans-2e"/>
       <use x="95.410156" xlink:href="#DejaVuSans-31"/>
      </g>
     </g>
    </g>
    <g id="text_28">
     <!-- $p_1$ -->
     <g transform="translate(368.588182 332.936812)scale(0.1 -0.1)">
      <use xlink:href="#DejaVuSans-Oblique-70"/>
      <use transform="translate(63.476562 -16.40625)scale(0.7)" xlink:href="#DejaVuSans-31"/>
     </g>
    </g>
   </g>
   <g id="matplotlib.axis_6">
    <g id="ytick_13">
     <g id="line2d_49">
      <path clip-path="url(#p38c5a7f820)" d="M 333.556364 284.73869 
L 414.72 284.73869 
" style="fill:none;stroke:#b0b0b0;stroke-dasharray:1.85,0.8;stroke-dashoffset:0;stroke-width:0.5;"/>
     </g>
     <g id="line2d_50">
      <g>
       <use style="stroke:#000000;stroke-width:0.8;" x="333.556364" xlink:href="#mef2674f2b1" y="284.73869"/>
      </g>
     </g>
     <g id="text_29">
      <!-- −0.3 -->
      <g transform="translate(309.558395 287.398143)scale(0.07 -0.07)">
       <use xlink:href="#DejaVuSans-2212"/>
       <use x="83.789062" xlink:href="#DejaVuSans-30"/>
       <use x="147.412109" xlink:href="#DejaVuSans-2e"/>
       <use x="179.199219" xlink:href="#DejaVuSans-33"/>
      </g>
     </g>
    </g>
    <g id="ytick_14">
     <g id="line2d_51">
      <path clip-path="url(#p38c5a7f820)" d="M 333.556364 248.00186 
L 414.72 248.00186 
" style="fill:none;stroke:#b0b0b0;stroke-dasharray:1.85,0.8;stroke-dashoffset:0;stroke-width:0.5;"/>
     </g>
     <g id="line2d_52">
      <g>
       <use style="stroke:#000000;stroke-width:0.8;" x="333.556364" xlink:href="#mef2674f2b1" y="248.00186"/>
      </g>
     </g>
     <g id="text_30">
      <!-- −0.2 -->
      <g transform="translate(309.558395 250.661313)scale(0.07 -0.07)">
       <use xlink:href="#DejaVuSans-2212"/>
       <use x="83.789062" xlink:href="#DejaVuSans-30"/>
       <use x="147.412109" xlink:href="#DejaVuSans-2e"/>
       <use x="179.199219" xlink:href="#DejaVuSans-32"/>
      </g>
     </g>
    </g>
    <g id="ytick_15">
     <g id="line2d_53">
      <path clip-path="url(#p38c5a7f820)" d="M 333.556364 211.265031 
L 414.72 211.265031 
" style="fill:none;stroke:#b0b0b0;stroke-dasharray:1.85,0.8;stroke-dashoffset:0;stroke-width:0.5;"/>
     </g>
     <g id="line2d_54">
      <g>
       <use style="stroke:#000000;stroke-width:0.8;" x="333.556364" xlink:href="#mef2674f2b1" y="211.265031"/>
      </g>
     </g>
     <g id="text_31">
      <!-- −0.1 -->
      <g transform="translate(309.558395 213.924484)scale(0.07 -0.07)">
       <use xlink:href="#DejaVuSans-2212"/>
       <use x="83.789062" xlink:href="#DejaVuSans-30"/>
       <use x="147.412109" xlink:href="#DejaVuSans-2e"/>
       <use x="179.199219" xlink:href="#DejaVuSans-31"/>
      </g>
     </g>
    </g>
    <g id="ytick_16">
     <g id="line2d_55">
      <path clip-path="url(#p38c5a7f820)" d="M 333.556364 174.528201 
L 414.72 174.528201 
" style="fill:none;stroke:#b0b0b0;stroke-dasharray:1.85,0.8;stroke-dashoffset:0;stroke-width:0.5;"/>
     </g>
     <g id="line2d_56">
      <g>
       <use style="stroke:#000000;stroke-width:0.8;" x="333.556364" xlink:href="#mef2674f2b1" y="174.528201"/>
      </g>
     </g>
     <g id="text_32">
      <!-- 0.0 -->
      <g transform="translate(315.424176 177.187654)scale(0.07 -0.07)">
       <use xlink:href="#DejaVuSans-30"/>
       <use x="63.623047" xlink:href="#DejaVuSans-2e"/>
       <use x="95.410156" xlink:href="#DejaVuSans-30"/>
      </g>
     </g>
    </g>
    <g id="ytick_17">
     <g id="line2d_57">
      <path clip-path="url(#p38c5a7f820)" d="M 333.556364 137.791372 
L 414.72 137.791372 
" style="fill:none;stroke:#b0b0b0;stroke-dasharray:1.85,0.8;stroke-dashoffset:0;stroke-width:0.5;"/>
     </g>
     <g id="line2d_58">
      <g>
       <use style="stroke:#000000;stroke-width:0.8;" x="333.556364" xlink:href="#mef2674f2b1" y="137.791372"/>
      </g>
     </g>
     <g id="text_33">
      <!-- 0.1 -->
      <g transform="translate(315.424176 140.450825)scale(0.07 -0.07)">
       <use xlink:href="#DejaVuSans-30"/>
       <use x="63.623047" xlink:href="#DejaVuSans-2e"/>
       <use x="95.410156" xlink:href="#DejaVuSans-31"/>
      </g>
     </g>
    </g>
    <g id="ytick_18">
     <g id="line2d_59">
      <path clip-path="url(#p38c5a7f820)" d="M 333.556364 101.054542 
L 414.72 101.054542 
" style="fill:none;stroke:#b0b0b0;stroke-dasharray:1.85,0.8;stroke-dashoffset:0;stroke-width:0.5;"/>
     </g>
     <g id="line2d_60">
      <g>
       <use style="stroke:#000000;stroke-width:0.8;" x="333.556364" xlink:href="#mef2674f2b1" y="101.054542"/>
      </g>
     </g>
     <g id="text_34">
      <!-- 0.2 -->
      <g transform="translate(315.424176 103.713995)scale(0.07 -0.07)">
       <use xlink:href="#DejaVuSans-30"/>
       <use x="63.623047" xlink:href="#DejaVuSans-2e"/>
       <use x="95.410156" xlink:href="#DejaVuSans-32"/>
      </g>
     </g>
    </g>
    <g id="ytick_19">
     <g id="line2d_61">
      <path clip-path="url(#p38c5a7f820)" d="M 333.556364 64.317713 
L 414.72 64.317713 
" style="fill:none;stroke:#b0b0b0;stroke-dasharray:1.85,0.8;stroke-dashoffset:0;stroke-width:0.5;"/>
     </g>
     <g id="line2d_62">
      <g>
       <use style="stroke:#000000;stroke-width:0.8;" x="333.556364" xlink:href="#mef2674f2b1" y="64.317713"/>
      </g>
     </g>
     <g id="text_35">
      <!-- 0.3 -->
      <g transform="translate(315.424176 66.977166)scale(0.07 -0.07)">
       <use xlink:href="#DejaVuSans-30"/>
       <use x="63.623047" xlink:href="#DejaVuSans-2e"/>
       <use x="95.410156" xlink:href="#DejaVuSans-33"/>
      </g>
     </g>
    </g>
    <g id="text_36">
     <!-- $p_2$ -->
     <g transform="translate(303.458395 180.078)rotate(-90)scale(0.1 -0.1)">
      <use xlink:href="#DejaVuSans-Oblique-70"/>
      <use transform="translate(63.476562 -16.40625)scale(0.7)" xlink:href="#DejaVuSans-32"/>
     </g>
    </g>
   </g>
   <g id="line2d_63">
    <path clip-path="url(#p38c5a7f820)" d="M 408.896766 211.159938 
L 409.605896 210.349149 
L 410.17449 209.396424 
L 410.600294 208.305538 
L 410.92044 206.820226 
L 411.030744 205.150689 
L 410.930575 203.30645 
L 410.548526 200.948126 
L 409.883795 198.384683 
L 408.94154 195.636023 
L 407.534336 192.295337 
L 405.788545 188.774519 
L 403.721867 185.109266 
L 401.355254 181.336737 
L 398.364286 177.012067 
L 395.062529 172.655532 
L 391.492341 168.323021 
L 387.699521 164.070114 
L 383.732726 159.951369 
L 379.642845 156.019625 
L 375.482345 152.325319 
L 371.304599 148.915845 
L 367.163202 145.834942 
L 363.111282 143.122132 
L 359.626751 141.048011 
L 356.289342 139.313327 
L 353.132891 137.935667 
L 350.544647 137.034157 
L 348.139577 136.423744 
L 345.936354 136.109165 
L 344.221541 136.076901 
L 342.677402 136.264 
L 341.312744 136.669396 
L 340.318283 137.17235 
L 339.457829 137.823321 
L 338.73479 138.61973 
L 338.152032 139.558422 
L 337.711864 140.635678 
L 337.374296 142.10524 
L 337.246465 143.759775 
L 337.3291 145.589843 
L 337.621729 147.585004 
L 338.226246 150.106117 
L 339.109574 152.816837 
L 340.264856 155.69612 
L 341.906582 159.164402 
L 343.875085 162.78845 
L 346.150407 166.53152 
L 349.048053 170.837458 
L 352.267567 175.190743 
L 355.767649 179.535529 
L 359.503397 183.816078 
L 363.426886 187.977476 
L 367.487785 191.966339 
L 371.633996 195.731496 
L 375.812331 199.224644 
L 379.969186 202.400972 
L 384.051237 205.219731 
L 387.574558 207.39577 
L 390.961655 209.238583 
L 394.178186 210.729487 
L 396.827048 211.733378 
L 399.299758 212.448417 
L 401.577117 212.869051 
L 403.36021 212.992735 
L 404.976591 212.896979 
L 406.417039 212.58233 
L 407.673335 212.050583 
L 408.574374 211.443773 
L 408.896766 211.159938 
L 408.896766 211.159938 
" style="fill:none;stroke:#000000;stroke-linecap:square;stroke-width:1.5;"/>
   </g>
   <g id="line2d_64">
    <path clip-path="url(#p38c5a7f820)" d="M 408.896766 211.159938 
L 409.605896 210.349149 
L 410.17449 209.396424 
L 410.600294 208.305538 
L 410.92044 206.820226 
L 411.030744 205.150689 
L 410.930575 203.30645 
L 410.548526 200.948126 
L 409.883795 198.384683 
L 408.94154 195.636023 
L 407.534336 192.295337 
L 405.788545 188.774519 
L 403.721867 185.109266 
L 401.355254 181.336737 
L 398.364286 177.012067 
L 395.062529 172.655532 
L 391.492341 168.323021 
L 387.699521 164.070114 
L 383.732726 159.951369 
L 379.642845 156.019625 
L 375.482345 152.325319 
L 371.304599 148.915845 
L 367.163202 145.834942 
L 363.111282 143.122132 
L 359.626751 141.048011 
L 356.289342 139.313327 
L 353.132891 137.935667 
L 350.544647 137.034157 
L 348.139577 136.423744 
L 345.936354 136.109165 
L 344.221541 136.076901 
L 342.677402 136.264 
L 341.312744 136.669396 
L 340.318283 137.17235 
L 339.457829 137.823321 
L 338.73479 138.61973 
L 338.152032 139.558422 
L 337.711864 140.635678 
L 337.374296 142.10524 
L 337.246465 143.759775 
L 337.3291 145.589843 
L 337.621729 147.585004 
L 338.226246 150.106117 
L 339.109574 152.816837 
L 340.264856 155.69612 
L 341.906582 159.164402 
L 343.875085 162.78845 
L 346.150407 166.53152 
L 349.048053 170.837458 
L 352.267567 175.190743 
L 355.767649 179.535529 
L 359.503397 183.816078 
L 363.426886 187.977476 
L 367.487785 191.966339 
L 371.633996 195.731496 
L 375.812331 199.224644 
L 379.969186 202.400972 
L 384.051237 205.219731 
L 387.574558 207.39577 
L 390.961655 209.238583 
L 394.178186 210.729487 
L 396.827048 211.733378 
L 399.299758 212.448417 
L 401.577117 212.869051 
L 403.36021 212.992735 
L 404.976591 212.896979 
L 406.417039 212.58233 
L 407.673335 212.050583 
L 408.574374 211.443773 
L 408.896766 211.159938 
L 408.896766 211.159938 
" style="fill:none;stroke:#000000;stroke-linecap:square;stroke-width:1.5;"/>
   </g>
   <g id="line2d_65">
    <path clip-path="url(#p38c5a7f820)" d="M 408.896766 211.159938 
L 409.605896 210.349149 
L 410.17449 209.396424 
L 410.600294 208.305538 
L 410.92044 206.820226 
L 411.030744 205.150689 
L 410.930575 203.30645 
L 410.548526 200.948126 
L 409.883795 198.384683 
L 408.94154 195.636023 
L 407.534336 192.295337 
L 405.788545 188.774519 
L 403.721867 185.109266 
L 401.355254 181.336737 
L 398.364286 177.012067 
L 395.062529 172.655532 
L 391.492341 168.323021 
L 387.699521 164.070114 
L 383.732726 159.951369 
L 379.642845 156.019625 
L 375.482345 152.325319 
L 371.304599 148.915845 
L 367.163202 145.834942 
L 363.111282 143.122132 
L 359.626751 141.048011 
L 356.289342 139.313327 
L 353.132891 137.935667 
L 350.544647 137.034157 
L 348.139577 136.423744 
L 345.936354 136.109165 
L 344.221541 136.076901 
L 342.677402 136.264 
L 341.312744 136.669396 
L 340.318283 137.17235 
L 339.457829 137.823321 
L 338.73479 138.61973 
L 338.152032 139.558422 
L 337.711864 140.635678 
L 337.374296 142.10524 
L 337.246465 143.759775 
L 337.3291 145.589843 
L 337.621729 147.585004 
L 338.226246 150.106117 
L 339.109574 152.816837 
L 340.264856 155.69612 
L 341.906582 159.164402 
L 343.875085 162.78845 
L 346.150407 166.53152 
L 349.048053 170.837458 
L 352.267567 175.190743 
L 355.767649 179.535529 
L 359.503397 183.816078 
L 363.426886 187.977476 
L 367.487785 191.966339 
L 371.633996 195.731496 
L 375.812331 199.224644 
L 379.969186 202.400972 
L 384.051237 205.219731 
L 387.574558 207.39577 
L 390.961655 209.238583 
L 394.178186 210.729487 
L 396.827048 211.733378 
L 399.299758 212.448417 
L 401.577117 212.869051 
L 403.36021 212.992735 
L 404.976591 212.896979 
L 406.417039 212.58233 
L 407.673335 212.050583 
L 408.574374 211.443773 
L 408.896766 211.159938 
L 408.896766 211.159938 
" style="fill:none;stroke:#000000;stroke-linecap:square;stroke-width:1.5;"/>
   </g>
   <g id="patch_13">
    <path d="M 333.556364 307.584 
L 333.556364 41.472 
" style="fill:none;stroke:#000000;stroke-linecap:square;stroke-linejoin:miter;stroke-width:0.8;"/>
   </g>
   <g id="patch_14">
    <path d="M 414.72 307.584 
L 414.72 41.472 
" style="fill:none;stroke:#000000;stroke-linecap:square;stroke-linejoin:miter;stroke-width:0.8;"/>
   </g>
   <g id="patch_15">
    <path d="M 333.556364 307.584 
L 414.72 307.584 
" style="fill:none;stroke:#000000;stroke-linecap:square;stroke-linejoin:miter;stroke-width:0.8;"/>
   </g>
   <g id="patch_16">
    <path d="M 333.556364 41.472 
L 414.72 41.472 
" style="fill:none;stroke:#000000;stroke-linecap:square;stroke-linejoin:miter;stroke-width:0.8;"/>
   </g>
   <g id="text_37">
    <!-- 95.0% confidence ellipse  -->
    <g transform="translate(309.53576 25.323656)scale(0.09 -0.09)">
     <use xlink:href="#DejaVuSans-Bold-39"/>
     <use x="69.580078" xlink:href="#DejaVuSans-Bold-35"/>
     <use x="139.160156" xlink:href="#DejaVuSans-Bold-2e"/>
     <use x="177.148438" xlink:href="#DejaVuSans-Bold-30"/>
     <use x="246.728516" xlink:href="#DejaVuSans-Bold-25"/>
     <use x="346.923828" xlink:href="#DejaVuSans-Bold-20"/>
     <use x="381.738281" xlink:href="#DejaVuSans-Bold-63"/>
     <use x="441.015625" xlink:href="#DejaVuSans-Bold-6f"/>
     <use x="509.716797" xlink:href="#DejaVuSans-Bold-6e"/>
     <use x="580.908203" xlink:href="#DejaVuSans-Bold-66"/>
     <use x="624.414062" xlink:href="#DejaVuSans-Bold-69"/>
     <use x="658.691406" xlink:href="#DejaVuSans-Bold-64"/>
     <use x="730.273438" xlink:href="#DejaVuSans-Bold-65"/>
     <use x="798.095703" xlink:href="#DejaVuSans-Bold-6e"/>
     <use x="869.287109" xlink:href="#DejaVuSans-Bold-63"/>
     <use x="928.564453" xlink:href="#DejaVuSans-Bold-65"/>
     <use x="996.386719" xlink:href="#DejaVuSans-Bold-20"/>
     <use x="1031.201172" xlink:href="#DejaVuSans-Bold-65"/>
     <use x="1099.023438" xlink:href="#DejaVuSans-Bold-6c"/>
     <use x="1133.300781" xlink:href="#DejaVuSans-Bold-6c"/>
     <use x="1167.578125" xlink:href="#DejaVuSans-Bold-69"/>
     <use x="1201.855469" xlink:href="#DejaVuSans-Bold-70"/>
     <use x="1273.4375" xlink:href="#DejaVuSans-Bold-73"/>
     <use x="1332.958984" xlink:href="#DejaVuSans-Bold-65"/>
     <use x="1400.78125" xlink:href="#DejaVuSans-Bold-20"/>
    </g>
    <!-- of minor eigenvector -->
    <g transform="translate(321.023416 35.401688)scale(0.09 -0.09)">
     <use xlink:href="#DejaVuSans-Bold-6f"/>
     <use x="68.701172" xlink:href="#DejaVuSans-Bold-66"/>
     <use x="112.207031" xlink:href="#DejaVuSans-Bold-20"/>
     <use x="147.021484" xlink:href="#DejaVuSans-Bold-6d"/>
     <use x="251.220703" xlink:href="#DejaVuSans-Bold-69"/>
     <use x="285.498047" xlink:href="#DejaVuSans-Bold-6e"/>
     <use x="356.689453" xlink:href="#DejaVuSans-Bold-6f"/>
     <use x="425.390625" xlink:href="#DejaVuSans-Bold-72"/>
     <use x="474.707031" xlink:href="#DejaVuSans-Bold-20"/>
     <use x="509.521484" xlink:href="#DejaVuSans-Bold-65"/>
     <use x="577.34375" xlink:href="#DejaVuSans-Bold-69"/>
     <use x="611.621094" xlink:href="#DejaVuSans-Bold-67"/>
     <use x="683.203125" xlink:href="#DejaVuSans-Bold-65"/>
     <use x="751.025391" xlink:href="#DejaVuSans-Bold-6e"/>
     <use x="822.216797" xlink:href="#DejaVuSans-Bold-76"/>
     <use x="887.402344" xlink:href="#DejaVuSans-Bold-65"/>
     <use x="955.224609" xlink:href="#DejaVuSans-Bold-63"/>
     <use x="1014.501953" xlink:href="#DejaVuSans-Bold-74"/>
     <use x="1062.304688" xlink:href="#DejaVuSans-Bold-6f"/>
     <use x="1131.005859" xlink:href="#DejaVuSans-Bold-72"/>
    </g>
   </g>
  </g>
 </g>
 <defs>
  <clipPath id="p03090c7874">
   <rect height="266.112" width="81.163636" x="57.6" y="41.472"/>
  </clipPath>
  <clipPath id="p1fe8c94500">
   <rect height="266.112" width="81.163636" x="195.578182" y="41.472"/>
  </clipPath>
  <clipPath id="p38c5a7f820">
   <rect height="266.112" width="81.163636" x="333.556364" y="41.472"/>
  </clipPath>
 </defs>
</svg>
